<?xml version="1.0" encoding="UTF-8"?>
<svg id="uuid-af899ea4-672e-493c-b826-d776441ea6b6" data-name="Layer 1" xmlns="http://www.w3.org/2000/svg" width="631.92" height="427.44" xmlns:xlink="http://www.w3.org/1999/xlink" viewBox="0 0 631.92 427.44">
  <defs>
    <style>
      .uuid-5ba96023-0ec9-4b30-ae7f-756f87b82e87 {
        fill: none;
      }

      .uuid-0a638060-de5c-42a2-b058-60a7c1ff2e64 {
        fill: url(#uuid-de63e969-2707-4602-8eac-be5a4793ef7d);
        isolation: isolate;
        opacity: .4438;
      }

      .uuid-e5c30805-94fa-46da-939b-1d1af9651aff {
        filter: url(#uuid-9f43ec73-ebc1-4631-886a-c40ba2f072c7);
      }

      .uuid-e5c30805-94fa-46da-939b-1d1af9651aff, .uuid-22012a25-b351-4351-9e54-bee511dcd1bd, .uuid-672ac8e4-fa1f-4da1-ad76-0504c8aa2c34, .uuid-ed30fe80-5917-468b-9969-c96a1a8c9fd1, .uuid-acc12d6f-287f-4730-a7b3-deabd6a29427, .uuid-904587f3-32ab-4510-b388-6269bfec66ff {
        fill: #fff;
      }

      .uuid-e5c30805-94fa-46da-939b-1d1af9651aff, .uuid-22012a25-b351-4351-9e54-bee511dcd1bd, .uuid-ed30fe80-5917-468b-9969-c96a1a8c9fd1, .uuid-acc12d6f-287f-4730-a7b3-deabd6a29427, .uuid-904587f3-32ab-4510-b388-6269bfec66ff {
        stroke: #000;
        stroke-miterlimit: 10;
        stroke-width: .40895px;
      }

      .uuid-b2dce9db-d4c3-4470-b579-140164ecca1a {
        clip-rule: evenodd;
      }

      .uuid-b2dce9db-d4c3-4470-b579-140164ecca1a, .uuid-17c482ff-e78d-4ae5-9e7e-ec6506836a41 {
        fill: url(#uuid-8506d1bb-7175-488c-bad3-285b4fa66ace);
      }

      .uuid-22012a25-b351-4351-9e54-bee511dcd1bd {
        filter: url(#uuid-655b566b-0078-40c9-a850-ce5df82cab03);
      }

      .uuid-10750d89-793b-4ffe-a494-e8f7b25938b3 {
        filter: url(#uuid-48eff112-6847-4602-a124-0fd983f48f61);
      }

      .uuid-6de4e7d3-f223-4f08-a5e1-38f3f3fd1f41 {
        fill: #f2f6fb;
      }

      .uuid-b6682390-ae5a-45ca-817b-527cccea40b3, .uuid-a5039668-5666-43af-b6fe-90af4ccf34e8 {
        fill: #679e63;
      }

      .uuid-f50c51d1-30a7-49d2-8d76-1eb5fd86b3a1 {
        fill: #ebebeb;
      }

      .uuid-f51d968d-5f2d-4442-a4e2-e2ffeb475b04 {
        fill: #e6ebf5;
      }

      .uuid-06e61367-89db-4d09-902d-7bde60dca7ce {
        fill: #eed94e;
      }

      .uuid-0e8db0e6-0185-4755-bfed-bc110ceadd1c {
        fill: #f16529;
      }

      .uuid-c9d9363b-cbc4-454a-b025-01b8eacd10db {
        fill: #323330;
      }

      .uuid-66e86f35-f966-4732-aea6-c6ff0ed4d448 {
        fill: #ced7ed;
      }

      .uuid-36f92893-9daa-4dba-a130-ae294723831f {
        fill: #d8deed;
      }

      .uuid-845cf5ab-1eaf-4676-baf0-a7fc597ab367 {
        fill: #cfd5e8;
      }

      .uuid-6924efbf-d300-4640-8879-8a766da614e3 {
        fill: #dfe6f5;
      }

      .uuid-25c3d17e-0bde-4d7f-85d9-4d57fc16dc89 {
        fill: #e44d26;
      }

      .uuid-f8d338e1-d968-40e3-b4fe-e426b60f79bd {
        fill: #464342;
      }

      .uuid-1a76b102-cc6b-470a-9c52-7f61c3a5057d {
        fill: #2965f1;
      }

      .uuid-f8ae3ed2-7059-45b4-b9ee-4ab0fcfba944 {
        fill: #264de4;
      }

      .uuid-160b3880-2e01-41e1-987e-59625077762d {
        fill: url(#uuid-398706b2-8f58-461f-9e45-4a7a0ce16aeb);
      }

      .uuid-9a5a436a-58d7-4189-bf97-e87be1c305fd {
        fill: url(#uuid-66579838-5a38-4d77-95b4-335ee96901e4);
      }

      .uuid-c06a7b12-fce2-4754-9f9f-ef601e809c88 {
        fill: url(#uuid-9f991c95-c28b-49e1-8f27-43c6690b6c9c);
      }

      .uuid-ed30fe80-5917-468b-9969-c96a1a8c9fd1 {
        filter: url(#uuid-9ea6e336-394b-48fd-829b-c766cbba564c);
      }

      .uuid-acc12d6f-287f-4730-a7b3-deabd6a29427 {
        filter: url(#uuid-e96f4f20-d2fe-4d87-b0ad-4ae46f05c19f);
      }

      .uuid-1675ecc2-b654-41c2-88a6-39d13f548aea {
        fill: url(#uuid-950fc61d-dd3b-4905-99a3-603cb1feb09d);
      }

      .uuid-7c10ad71-5e14-40b7-9477-757405687ad5 {
        filter: url(#uuid-d2f8f631-bcf6-4921-bbf2-f80d6983d10b);
      }

      .uuid-904587f3-32ab-4510-b388-6269bfec66ff {
        filter: url(#uuid-01d883ea-4eb3-4842-a57b-8b18203e91a3);
      }

      .uuid-e93df104-29ce-4fe2-84e2-4abee7fe1eda {
        fill: url(#uuid-1a09df46-d0e9-45de-8fcb-e64e5cfa6675);
      }

      .uuid-84b5b387-dcc0-4d11-8022-118581e4bcd7 {
        fill: #333;
      }

      .uuid-84b5b387-dcc0-4d11-8022-118581e4bcd7, .uuid-a5039668-5666-43af-b6fe-90af4ccf34e8, .uuid-17c482ff-e78d-4ae5-9e7e-ec6506836a41 {
        fill-rule: evenodd;
      }

      .uuid-39b371db-13e0-4d59-a97f-5c7833485fcd {
        fill: url(#uuid-b0ac5890-ead6-44d5-a4c8-1f78cb726283);
      }

      .uuid-77cdc9f1-7504-49c8-9f09-423d39aeefe2 {
        fill: url(#uuid-6af41883-e3d4-43c5-87d8-0b7454e3ad5e);
      }

      .uuid-14351e7c-2479-4643-9f5a-1c1130f12633 {
        fill: url(#uuid-9623540f-1b81-45d8-8621-34ff05d26cd5);
      }

      .uuid-41abc803-a5ee-471a-a915-82ed5ea156af {
        clip-path: url(#uuid-8d56fee9-8de5-4290-b466-7112cf0113e0);
      }
    </style>
    <filter id="uuid-48eff112-6847-4602-a124-0fd983f48f61" data-name="drop-shadow-1" filterUnits="userSpaceOnUse">
      <feOffset dx="9.08787" dy="9.08787"/>
      <feGaussianBlur result="uuid-e667032a-6902-4816-8537-52c943ea4e4a" stdDeviation="7.27029"/>
      <feFlood flood-color="#0557a0" flood-opacity=".09"/>
      <feComposite in2="uuid-e667032a-6902-4816-8537-52c943ea4e4a" operator="in"/>
      <feComposite in="SourceGraphic"/>
    </filter>
    <filter id="uuid-d2f8f631-bcf6-4921-bbf2-f80d6983d10b" data-name="drop-shadow-2" filterUnits="userSpaceOnUse">
      <feOffset dx="13.6318" dy="18.17573"/>
      <feGaussianBlur result="uuid-898b636b-3433-45bd-ac2d-32c3820ad45d" stdDeviation="12.72301"/>
      <feFlood flood-color="#0557a0" flood-opacity=".11"/>
      <feComposite in2="uuid-898b636b-3433-45bd-ac2d-32c3820ad45d" operator="in"/>
      <feComposite in="SourceGraphic"/>
    </filter>
    <filter id="uuid-01d883ea-4eb3-4842-a57b-8b18203e91a3" data-name="drop-shadow-3" filterUnits="userSpaceOnUse">
      <feOffset dx="9.08787" dy="9.08787"/>
      <feGaussianBlur result="uuid-f68ef5f4-9a2d-4849-abe5-749ef92e6794" stdDeviation="5.45272"/>
      <feFlood flood-color="#0557a0" flood-opacity=".09"/>
      <feComposite in2="uuid-f68ef5f4-9a2d-4849-abe5-749ef92e6794" operator="in"/>
      <feComposite in="SourceGraphic"/>
    </filter>
    <filter id="uuid-655b566b-0078-40c9-a850-ce5df82cab03" data-name="drop-shadow-4" filterUnits="userSpaceOnUse">
      <feOffset dx="9.08787" dy="9.08787"/>
      <feGaussianBlur result="uuid-3b57834c-c960-4702-beb4-f5f4188e34bd" stdDeviation="5.45272"/>
      <feFlood flood-color="#0557a0" flood-opacity=".09"/>
      <feComposite in2="uuid-3b57834c-c960-4702-beb4-f5f4188e34bd" operator="in"/>
      <feComposite in="SourceGraphic"/>
    </filter>
    <filter id="uuid-9f43ec73-ebc1-4631-886a-c40ba2f072c7" data-name="drop-shadow-5" filterUnits="userSpaceOnUse">
      <feOffset dx="9.08787" dy="9.08787"/>
      <feGaussianBlur result="uuid-f849c179-845e-4c1c-a06e-260c0c502a34" stdDeviation="5.45272"/>
      <feFlood flood-color="#0557a0" flood-opacity=".09"/>
      <feComposite in2="uuid-f849c179-845e-4c1c-a06e-260c0c502a34" operator="in"/>
      <feComposite in="SourceGraphic"/>
    </filter>
    <filter id="uuid-e96f4f20-d2fe-4d87-b0ad-4ae46f05c19f" data-name="drop-shadow-6" filterUnits="userSpaceOnUse">
      <feOffset dx="9.08787" dy="9.08787"/>
      <feGaussianBlur result="uuid-b261aa6b-af43-480b-bec4-1dac3165b841" stdDeviation="5.45272"/>
      <feFlood flood-color="#0557a0" flood-opacity=".09"/>
      <feComposite in2="uuid-b261aa6b-af43-480b-bec4-1dac3165b841" operator="in"/>
      <feComposite in="SourceGraphic"/>
    </filter>
    <filter id="uuid-9ea6e336-394b-48fd-829b-c766cbba564c" data-name="drop-shadow-7" filterUnits="userSpaceOnUse">
      <feOffset dx="9.08787" dy="9.08787"/>
      <feGaussianBlur result="uuid-ffbda576-67d7-43bf-9313-8e30961b5b0f" stdDeviation="5.45272"/>
      <feFlood flood-color="#0557a0" flood-opacity=".09"/>
      <feComposite in2="uuid-ffbda576-67d7-43bf-9313-8e30961b5b0f" operator="in"/>
      <feComposite in="SourceGraphic"/>
    </filter>
    <linearGradient id="uuid-8506d1bb-7175-488c-bad3-285b4fa66ace" x1="314.62902" y1="45.83917" x2="309.19673" y2="56.92105" gradientTransform="matrix(1, 0, 0, 1, 0, 0)" gradientUnits="userSpaceOnUse">
      <stop offset="0" stop-color="#3f873f"/>
      <stop offset=".3296" stop-color="#3e8a3d"/>
      <stop offset=".63676" stop-color="#3e9537"/>
      <stop offset=".93418" stop-color="#3da82d"/>
      <stop offset="1" stop-color="#3dae2b"/>
    </linearGradient>
    <clipPath id="uuid-8d56fee9-8de5-4290-b466-7112cf0113e0">
      <path class="uuid-b2dce9db-d4c3-4470-b579-140164ecca1a" d="M312.55087,43.2563c-.22636-.12967-.50544-.12967-.73179,0l-6.06082,3.46935c-.22665,.12967-.36616,.36929-.36616,.62891v6.94405c0,.25938,.13952,.499,.36592,.62891l6.06082,3.47214c.2266,.12972,.50568,.12972,.73228,0l6.05941-3.47214c.22636-.12991,.36587-.36953,.36587-.62891v-6.94429c0-.25938-.13952-.499-.36611-.62867l-6.05941-3.46935Z"/>
    </clipPath>
    <linearGradient id="uuid-9f991c95-c28b-49e1-8f27-43c6690b6c9c" x1="311.26409" y1="51.64353" x2="326.58989" y2="40.32001" gradientTransform="matrix(1, 0, 0, 1, 0, 0)" gradientUnits="userSpaceOnUse">
      <stop offset=".13756" stop-color="#3f873f"/>
      <stop offset=".39741" stop-color="#519f44"/>
      <stop offset=".71128" stop-color="#63b649"/>
      <stop offset=".90808" stop-color="#6abf4b"/>
    </linearGradient>
    <linearGradient id="uuid-b0ac5890-ead6-44d5-a4c8-1f78cb726283" x1="305.17768" y1="42.0045" x2="319.19081" y2="42.0045" gradientTransform="matrix(1, 0, 0, 1, 0, 0)" gradientUnits="userSpaceOnUse">
      <stop offset=".09192" stop-color="#6abf4b"/>
      <stop offset=".28872" stop-color="#63b649"/>
      <stop offset=".60259" stop-color="#519f44"/>
      <stop offset=".86244" stop-color="#3f873f"/>
    </linearGradient>
    <linearGradient id="uuid-1a09df46-d0e9-45de-8fcb-e64e5cfa6675" x1="305.17768" y1="50.82507" x2="319.19081" y2="50.82507" gradientTransform="matrix(1, 0, 0, 1, 0, 0)" gradientUnits="userSpaceOnUse">
      <stop offset=".09146" stop-color="#6abf4b"/>
      <stop offset=".28827" stop-color="#63b649"/>
      <stop offset=".60216" stop-color="#519f44"/>
      <stop offset=".86203" stop-color="#3f873f"/>
    </linearGradient>
    <linearGradient id="uuid-6af41883-e3d4-43c5-87d8-0b7454e3ad5e" x1="305.17768" y1="54.79331" x2="319.19081" y2="54.79331" xlink:href="#uuid-b0ac5890-ead6-44d5-a4c8-1f78cb726283"/>
    <linearGradient id="uuid-9623540f-1b81-45d8-8621-34ff05d26cd5" x1="305.17768" y1="56.58685" x2="319.19081" y2="56.58685" xlink:href="#uuid-b0ac5890-ead6-44d5-a4c8-1f78cb726283"/>
    <linearGradient id="uuid-950fc61d-dd3b-4905-99a3-603cb1feb09d" x1="321.2069" y1="45.47283" x2="312.60421" y2="63.02233" xlink:href="#uuid-8506d1bb-7175-488c-bad3-285b4fa66ace"/>
    <linearGradient id="uuid-66579838-5a38-4d77-95b4-335ee96901e4" x1="1056.79249" y1="263.42587" x2="1102.66655" y2="223.96702" gradientTransform="translate(-58.5058 267.20028) scale(.5625 -.568)" gradientUnits="userSpaceOnUse">
      <stop offset="0" stop-color="#5a9fd4"/>
      <stop offset="1" stop-color="#306998"/>
    </linearGradient>
    <linearGradient id="uuid-398706b2-8f58-461f-9e45-4a7a0ce16aeb" x1="1120.36263" y1="200.32039" x2="1104.01701" y2="223.41381" gradientTransform="translate(-58.5058 267.20028) scale(.5625 -.568)" gradientUnits="userSpaceOnUse">
      <stop offset="0" stop-color="#ffd43b"/>
      <stop offset="1" stop-color="#ffe873"/>
    </linearGradient>
    <radialGradient id="uuid-de63e969-2707-4602-8eac-be5a4793ef7d" cx="87.50162" cy="-369.77904" fx="87.50162" fy="-369.77904" r="13.39382" gradientTransform="translate(204.64808 188.69579) rotate(-90) scale(.21717 -.96257)" gradientUnits="userSpaceOnUse">
      <stop offset="0" stop-color="#b8b8b8" stop-opacity=".498"/>
      <stop offset="1" stop-color="#7f7f7f" stop-opacity="0"/>
    </radialGradient>
  </defs>
  <g class="uuid-10750d89-793b-4ffe-a494-e8f7b25938b3">
    <path class="uuid-672ac8e4-fa1f-4da1-ad76-0504c8aa2c34" d="M295.4275,141.95088h253.46499v211.87148c0,5.01573-4.07214,9.08787-9.08787,9.08787h-235.28926c-5.01573,0-9.08787-4.07214-9.08787-9.08787V141.95088h0Z"/>
    <path class="uuid-845cf5ab-1eaf-4676-baf0-a7fc597ab367" d="M304.51537,111.48741h235.28926c5.01573,0,9.08787,4.07214,9.08787,9.08787v21.3756h-253.46499v-21.3756c0-5.01573,4.07214-9.08787,9.08787-9.08787Z"/>
    <g>
      <ellipse class="uuid-672ac8e4-fa1f-4da1-ad76-0504c8aa2c34" cx="312.01812" cy="126.71915" rx="5.56579" ry="5.52095"/>
      <ellipse class="uuid-672ac8e4-fa1f-4da1-ad76-0504c8aa2c34" cx="329.30626" cy="126.71915" rx="5.56579" ry="5.52095"/>
      <ellipse class="uuid-672ac8e4-fa1f-4da1-ad76-0504c8aa2c34" cx="346.5944" cy="126.71915" rx="5.56579" ry="5.52095"/>
    </g>
  </g>
  <g>
    <rect class="uuid-36f92893-9daa-4dba-a130-ae294723831f" x="342.16834" y="181.47995" width="161.5582" height="15.98258" rx="3.37835" ry="3.37835"/>
    <rect class="uuid-6de4e7d3-f223-4f08-a5e1-38f3f3fd1f41" x="320.61764" y="212.29519" width="203.08471" height="111.08597" rx="3.63515" ry="3.63515"/>
    <g>
      <g>
        <rect class="uuid-36f92893-9daa-4dba-a130-ae294723831f" x="334.47445" y="233.54808" width="30.96207" height="7.81847" rx="2.1734" ry="2.1734"/>
        <path class="uuid-36f92893-9daa-4dba-a130-ae294723831f" d="M372.58593,240.90794l-.83162-.82492c-.10638-.10552-.10638-.27661,0-.38214l2.0687-2.05203c.10637-.10552,.10638-.27659,.00002-.38212l-2.06925-2.05302c-.10638-.10554-.10635-.27665,.00006-.38216l.83206-.825c.10639-.10549,.27883-.10547,.3852,.00004l3.28659,3.26011c.10639,.10554,.10638,.27665-.00003,.38217l-3.28652,3.2591c-.10639,.1055-.27884,.10549-.38521-.00003Z"/>
      </g>
      <g>
        <rect class="uuid-36f92893-9daa-4dba-a130-ae294723831f" x="382.61079" y="233.54808" width="30.96207" height="7.81847" rx="2.1734" ry="2.1734"/>
        <path class="uuid-36f92893-9daa-4dba-a130-ae294723831f" d="M420.72227,240.90794l-.83162-.82492c-.10638-.10552-.10638-.27661,0-.38214l2.0687-2.05203c.10637-.10552,.10638-.27659,.00002-.38212l-2.06925-2.05302c-.10638-.10554-.10635-.27665,.00006-.38216l.83206-.825c.10639-.10549,.27883-.10547,.3852,.00004l3.28659,3.26011c.10639,.10554,.10638,.27665-.00003,.38217l-3.28652,3.2591c-.10639,.1055-.27884,.10549-.38521-.00003Z"/>
      </g>
      <g>
        <rect class="uuid-36f92893-9daa-4dba-a130-ae294723831f" x="430.74714" y="233.54808" width="30.96207" height="7.81847" rx="2.1734" ry="2.1734"/>
        <path class="uuid-36f92893-9daa-4dba-a130-ae294723831f" d="M468.85861,240.90794l-.83162-.82492c-.10638-.10552-.10638-.27661,0-.38214l2.0687-2.05203c.10637-.10552,.10638-.27659,.00002-.38212l-2.06925-2.05302c-.10638-.10554-.10635-.27665,.00006-.38216l.83206-.825c.10639-.10549,.27883-.10547,.3852,.00004l3.28659,3.26011c.10639,.10554,.10638,.27665-.00003,.38217l-3.28652,3.2591c-.10639,.1055-.27884,.10549-.38521-.00003Z"/>
      </g>
      <rect class="uuid-36f92893-9daa-4dba-a130-ae294723831f" x="478.88348" y="233.54808" width="30.96207" height="7.81847" rx="2.1734" ry="2.1734"/>
    </g>
    <rect class="uuid-6924efbf-d300-4640-8879-8a766da614e3" x="334.98719" y="259.5715" width="128.63528" height="17.00588" rx="3.26586" ry="3.26586"/>
    <rect class="uuid-6924efbf-d300-4640-8879-8a766da614e3" x="474.39204" y="259.5715" width="35.45351" height="17.00588" rx="3.26586" ry="3.26586"/>
    <rect class="uuid-66e86f35-f966-4732-aea6-c6ff0ed4d448" x="463.62248" y="291.90691" width="46.22307" height="17.00588" rx="3.72904" ry="3.72904"/>
    <rect class="uuid-f51d968d-5f2d-4442-a4e2-e2ffeb475b04" x="334.98719" y="291.90691" width="46.22307" height="17.00588" rx="3.72904" ry="3.72904"/>
  </g>
  <g class="uuid-7c10ad71-5e14-40b7-9477-757405687ad5">
    <path class="uuid-672ac8e4-fa1f-4da1-ad76-0504c8aa2c34" d="M67.05096,73.61178h253.46499v211.87148c0,5.01573-4.07214,9.08787-9.08787,9.08787H76.13883c-5.01573,0-9.08787-4.07214-9.08787-9.08787V73.61178h0Z"/>
    <path class="uuid-845cf5ab-1eaf-4676-baf0-a7fc597ab367" d="M76.13883,43.14831h235.28926c5.01573,0,9.08787,4.07214,9.08787,9.08787v21.3756H67.05096v-21.3756c0-5.01573,4.07214-9.08787,9.08787-9.08787Z"/>
    <g>
      <ellipse class="uuid-672ac8e4-fa1f-4da1-ad76-0504c8aa2c34" cx="83.64157" cy="58.38004" rx="5.56579" ry="5.52095"/>
      <ellipse class="uuid-672ac8e4-fa1f-4da1-ad76-0504c8aa2c34" cx="100.92971" cy="58.38004" rx="5.56579" ry="5.52095"/>
      <ellipse class="uuid-672ac8e4-fa1f-4da1-ad76-0504c8aa2c34" cx="118.21785" cy="58.38004" rx="5.56579" ry="5.52095"/>
    </g>
  </g>
  <g>
    <rect class="uuid-36f92893-9daa-4dba-a130-ae294723831f" x="125.21564" y="95.11579" width="138.48561" height="13.70006" rx="2.89588" ry="2.89588"/>
    <rect class="uuid-6de4e7d3-f223-4f08-a5e1-38f3f3fd1f41" x="115.80778" y="121.53021" width="155.95134" height="151.5369" rx="3.72055" ry="3.72055"/>
    <g>
      <rect class="uuid-6924efbf-d300-4640-8879-8a766da614e3" x="144.8672" y="136.85648" width="42.88553" height="33.7125" rx="2.29628" ry="2.29628"/>
      <rect class="uuid-6924efbf-d300-4640-8879-8a766da614e3" x="199.81418" y="136.85648" width="42.88553" height="33.7125" rx="2.29628" ry="2.29628"/>
    </g>
    <g>
      <rect class="uuid-6924efbf-d300-4640-8879-8a766da614e3" x="144.8672" y="181.57715" width="42.88553" height="33.7125" rx="2.29628" ry="2.29628"/>
      <rect class="uuid-6924efbf-d300-4640-8879-8a766da614e3" x="199.81418" y="181.57715" width="42.88553" height="33.7125" rx="2.29628" ry="2.29628"/>
    </g>
    <rect class="uuid-6924efbf-d300-4640-8879-8a766da614e3" x="144.8672" y="226.29781" width="42.88553" height="33.7125" rx="2.29628" ry="2.29628"/>
  </g>
  <ellipse class="uuid-904587f3-32ab-4510-b388-6269bfec66ff" cx="53.30873" cy="126.71915" rx="45.60336" ry="45.23593"/>
  <ellipse class="uuid-22012a25-b351-4351-9e54-bee511dcd1bd" cx="320.34331" cy="52.8591" rx="45.60336" ry="45.23593"/>
  <ellipse class="uuid-e5c30805-94fa-46da-939b-1d1af9651aff" cx="560.47739" cy="141.95088" rx="45.60336" ry="45.23593"/>
  <ellipse class="uuid-acc12d6f-287f-4730-a7b3-deabd6a29427" cx="436.70845" cy="323.38116" rx="45.60336" ry="45.23593"/>
  <rect class="uuid-ed30fe80-5917-468b-9969-c96a1a8c9fd1" x="62.46076" y="324.21741" width="250.58394" height="77.38563" rx="38.69278" ry="38.69278"/>
  <g>
    <g>
      <path class="uuid-b6682390-ae5a-45ca-817b-527cccea40b3" d="M320.15083,72.98351c-.20996,0-.41895-.05443-.60268-.16l-1.9187-1.12604c-.28634-.15903-.14649-.21535-.05204-.24802,.38226-.13159,.45956-.16189,.86751-.39144,.04246-.0237,.0988-.01469,.14268,.01086l1.474,.86809c.05346,.02937,.12885,.02937,.17801,0l5.74664-3.29015c.05346-.03029,.08781-.09132,.08781-.15428v-6.57841c0-.06437-.03435-.12447-.08922-.15714l-5.74429-3.28729c-.05297-.03078-.12357-.03078-.17703,0l-5.74283,3.28826c-.05585,.0317-.09113,.09369-.09113,.15617v6.57841c0,.06296,.03528,.12258,.09064,.15239l1.57422,.90221c.85413,.42362,1.37711-.07527,1.37711-.57654v-6.49509c0-.0918,.07447-.16421,.16701-.16421h.72869c.09113,0,.16653,.07241,.16653,.16421v6.49509c0,1.13079-.62081,1.77926-1.70161,1.77926-.33212,0-.59364,0-1.3237-.35688l-1.50694-.86053c-.37219-.21346-.60268-.61251-.60268-1.03991v-6.57841c0-.4274,.23049-.82645,.60268-1.03894l5.74664-3.29393c.36364-.20401,.84699-.20401,1.20775,0l5.7462,3.29393c.37219,.21346,.60361,.61154,.60361,1.03894v6.57841c0,.4274-.23142,.825-.60361,1.03991l-5.7462,3.29107c-.18373,.10557-.39222,.16-.60507,.16Z"/>
      <path class="uuid-b6682390-ae5a-45ca-817b-527cccea40b3" d="M321.92593,68.45133c-2.51469,0-3.04153-1.14499-3.04153-2.10536,0-.09136,.07398-.16426,.16609-.16426h.74296c.08302,0,.15221,.05918,.16511,.13964,.11214,.75021,.44661,1.1289,1.96737,1.1289,1.21063,0,1.72599-.27167,1.72599-.9088,0-.3673-.14605-.63994-2.02752-.82267-1.57231-.15428-2.54484-.4989-2.54484-1.74659,0-1.15018,.97726-1.83607,2.61593-1.83607,1.84092,0,2.75187,.63379,2.86733,1.99369,.0043,.04687-.01241,.09185-.04388,.12684-.03152,.03267-.0754,.05254-.12167,.05254h-.74585c-.0773,0-.14556-.05443-.1613-.12873-.17894-.78952-.61411-1.0418-1.79464-1.0418-1.32179,0-1.47547,.45678-1.47547,.79897,0,.41466,.18133,.53534,1.96601,.76965,1.76601,.23149,2.60489,.55948,2.60489,1.79065,0,1.24203-1.04406,1.95341-2.86499,1.95341Z"/>
    </g>
    <path class="uuid-b6682390-ae5a-45ca-817b-527cccea40b3" d="M330.21228,61.55224c0,.60446-.49821,1.09861-1.10753,1.09861-.60365,0-1.10753-.48823-1.10753-1.09861,0-.62196,.5158-1.09885,1.10753-1.09885,.59789,0,1.10753,.47689,1.10753,1.09885Zm-2.03612-.00305c0,.51164,.41607,.92441,.92571,.92441,.51585,0,.93192-.42149,.93192-.92441,0-.51145-.42179-.9183-.93192-.9183-.50388,0-.92571,.40094-.92571,.9183Zm.51248-.61323h.42804c.14649,0,.43375,0,.43375,.32567,0,.22674-.14649,.27312-.23479,.30221,.17034,.01163,.18182,.12214,.20518,.27904,.01192,.09868,.02961,.26745,.06445,.32542h-.26342c-.00621-.05797-.04725-.37205-.04725-.38931-.01715-.06984-.04104-.1046-.1288-.1046h-.21666v.4939h-.2405v-1.23233Zm.23478,.54058h.19326c.15792,0,.18753-.11032,.18753-.1742,0-.16877-.11742-.16877-.18182-.16877h-.19897v.34297Z"/>
    <path class="uuid-84b5b387-dcc0-4d11-8022-118581e4bcd7" d="M302.35547,47.24583c0-.2627-.13936-.50413-.36794-.63427l-6.09259-3.47807c-.10305-.0601-.21856-.09136-.33544-.09611h-.06298c-.11644,.00475-.2319,.03601-.33642,.09611l-6.09264,3.47807c-.22712,.13014-.36838,.37157-.36838,.63427l.01339,9.36535c0,.13019,.06821,.25136,.18373,.31524,.11307,.06723,.25287,.06723,.3655,0l3.62085-2.05665c.22902-.13489,.36838-.37297,.36838-.6333v-4.37548c0-.26081,.13931-.50224,.3674-.6319l1.54178-.88088c.11497-.06582,.2405-.09801,.36887-.09801,.12548,0,.25433,.03218,.36598,.09801l1.54129,.88088c.22809,.12966,.36789,.37108,.36789,.6319v4.37548c0,.26033,.14126,.49986,.36887,.6333l3.61987,2.05665c.11356,.06723,.25531,.06723,.36789,0,.11214-.06388,.1828-.18506,.1828-.31524l.01192-9.36535Z"/>
    <path class="uuid-84b5b387-dcc0-4d11-8022-118581e4bcd7" d="M331.67115,34.37159c-.11404-.06291-.25316-.06151-.36579,.00402-.11239,.06558-.18158,.18535-.18158,.31476v9.27476c0,.09112-.04916,.1756-.12856,.22126-.07969,.04571-.17801,.04571-.2577,0l-1.52599-.87211c-.22765-.13014-.50774-.1299-.73534,.00024l-6.09503,3.48916c-.22785,.13043-.36813,.37137-.36813,.63214v6.97978c0,.26081,.14029,.50175,.36794,.63238l6.09474,3.49178c.22785,.13043,.50842,.13043,.73627,0l6.09572-3.49178c.22765-.13062,.36794-.37157,.36794-.63238v-17.39876c0-.26459-.14434-.50864-.37747-.63761l-3.62701-2.00765Zm-.56549,17.75075c0,.06509-.03508,.12544-.09211,.15786l-2.09266,1.19656c-.05678,.03243-.1269,.03243-.18367,0l-2.09271-1.19656c-.05702-.03243-.09206-.09277-.09206-.15786v-2.39696c0-.06509,.03503-.12544,.09186-.15811l2.09266-1.19894c.05702-.03267,.12714-.03267,.18416,0l2.09266,1.19894c.05678,.03267,.09186,.09301,.09186,.15811v2.39696Z"/>
    <g>
      <path class="uuid-84b5b387-dcc0-4d11-8022-118581e4bcd7" d="M351.9666,49.66266c.22668-.13062,.36623-.37108,.36623-.63122v-1.69144c0-.26009-.13955-.50079-.36647-.63141l-6.05584-3.48776c-.22785-.13135-.50915-.13159-.73749-.00097l-6.09283,3.48916c-.22765,.13043-.36794,.37132-.36794,.63214v6.97789c0,.26246,.142,.50457,.37175,.63427l6.05492,3.42242c.2233,.12641,.49699,.12781,.72171,.00402l3.66234-2.01923c.1162-.06412,.18851-.18506,.1892-.31665,.00098-.13159-.06963-.25345-.18466-.31903l-6.13148-3.49081c-.11454-.06509-.1849-.18603-.1849-.3167v-2.18679c0-.13038,.07012-.25107,.18416-.31617l1.90825-1.09129c.11356-.06509,.25384-.06509,.3674,0l1.90923,1.09129c.11405,.06509,.18416,.18578,.18416,.31617v1.72057c0,.13067,.07041,.25136,.18446,.31646,.11405,.06529,.25458,.0648,.36838-.00073l3.64944-2.1042Z"/>
      <path class="uuid-a5039668-5666-43af-b6fe-90af4ccf34e8" d="M345.45193,49.33583c.04368-.02511,.09758-.02511,.14126,0l1.16954,.66927c.04368,.02511,.07061,.07125,.07061,.12142v1.33955c0,.05017-.02692,.09631-.07061,.12142l-1.16954,.66927c-.04368,.02511-.09758,.02511-.14126,0l-1.16861-.66927c-.04368-.02511-.07061-.07125-.07061-.12142v-1.33955c0-.05017,.02692-.09631,.07061-.12142l1.16861-.66927Z"/>
    </g>
    <g>
      <path class="uuid-17c482ff-e78d-4ae5-9e7e-ec6506836a41" d="M312.55087,43.2563c-.22636-.12967-.50544-.12967-.73179,0l-6.06082,3.46935c-.22665,.12967-.36616,.36929-.36616,.62891v6.94405c0,.25938,.13952,.499,.36592,.62891l6.06082,3.47214c.2266,.12972,.50568,.12972,.73228,0l6.05941-3.47214c.22636-.12991,.36587-.36953,.36587-.62891v-6.94429c0-.25938-.13952-.499-.36611-.62867l-6.05941-3.46935Z"/>
      <g class="uuid-41abc803-a5ee-471a-a915-82ed5ea156af">
        <g>
          <path class="uuid-5ba96023-0ec9-4b30-ae7f-756f87b82e87" d="M311.80639,43.25629l-6.07351,3.46935c-.22665,.12967-.39155,.36929-.39155,.62891v6.94406c0,.17161,.07393,.3338,.18891,.46206l6.82406-11.57947c-.18331-.04483-.38151-.02021-.54791,.07511Z"/>
          <path class="uuid-5ba96023-0ec9-4b30-ae7f-756f87b82e87" d="M312.38806,58.46993c.05903-.01618,.11652-.03928,.17066-.07027l6.067-3.47214c.22636-.12991,.38108-.36953,.38108-.62891v-6.94429c0-.19092-.08596-.37073-.22148-.50428l-6.39726,11.61989Z"/>
          <path class="uuid-c06a7b12-fce2-4754-9f9f-ef601e809c88" d="M318.62231,46.72564l-6.07779-3.46935c-.05996-.03435-.12418-.05896-.19022-.07511l-6.82406,11.57947c.05881,.0656,.12767,.12289,.20429,.16686l6.0881,3.47214c.17245,.09873,.37739,.12182,.56542,.07027l6.39726-11.61989c-.0486-.04789-.10319-.09017-.163-.1244Z"/>
        </g>
        <g>
          <path class="uuid-5ba96023-0ec9-4b30-ae7f-756f87b82e87" d="M319.00679,54.2986v-6.94429c0-.25939-.15789-.49901-.38448-.62868l-6.07779-3.46935c-.06981-.03999-.14549-.06613-.22307-.08146l6.66261,11.29063c.01407-.05414,.02272-.10986,.02272-.16686Z"/>
          <path class="uuid-5ba96023-0ec9-4b30-ae7f-756f87b82e87" d="M305.73288,46.72564c-.22665,.12967-.39155,.36929-.39155,.62891v6.94406c0,.25938,.1668,.499,.3932,.62891l6.0881,3.47214c.14315,.08195,.30873,.11182,.46842,.09023l-6.52162-11.78513-.03656,.02088Z"/>
          <polygon class="uuid-39b371db-13e0-4d59-a97f-5c7833485fcd" points="311.61689 41.98086 311.53358 42.02814 311.64479 42.02814 311.61689 41.98086"/>
          <path class="uuid-e93df104-29ce-4fe2-84e2-4abee7fe1eda" d="M318.62572,54.92751c.17661-.10136,.30842-.26983,.35835-.46205l-6.66261-11.29063c-.17397-.03437-.35851-.00822-.51506,.08146l-6.03695,3.44846,6.52162,11.78513c.09309-.01258,.18421-.04246,.26766-.09023l6.067-3.47214Z"/>
          <polygon class="uuid-77cdc9f1-7504-49c8-9f09-423d39aeefe2" points="319.19081 54.81582 319.15064 54.74774 319.15064 54.83889 319.19081 54.81582"/>
          <path class="uuid-14351e7c-2479-4643-9f5a-1c1130f12633" d="M318.62572,54.92751l-6.067,3.47214c-.08345,.04777-.17457,.07764-.26766,.09023l.12084,.21836,6.73874-3.86935v-.09116l-.16657-.28227c-.04993,.19222-.18174,.36068-.35835,.46205Z"/>
          <path class="uuid-1675ecc2-b654-41c2-88a6-39d13f548aea" d="M318.62572,54.92751l-6.067,3.47214c-.08345,.04777-.17457,.07764-.26766,.09023l.12084,.21836,6.73874-3.86935v-.09116l-.16657-.28227c-.04993,.19222-.18174,.36068-.35835,.46205Z"/>
        </g>
      </g>
    </g>
  </g>
  <g>
    <path class="uuid-9a5a436a-58d7-4189-bf97-e87be1c305fd" d="M560.19578,116.35047c-1.93066,.0089-3.77415,.17221-5.39525,.45705-4.78033,.83765-5.64795,2.59024-5.64795,5.82387v4.26972h11.29169v1.42296h-15.52871c-3.28179,0-6.15757,1.95689-7.05467,5.67765-1.03693,4.26555-1.08284,6.93099,0,11.38454,.80276,3.31635,2.71995,5.67764,6.00174,5.67764h3.88281v-5.11782c0-3.69736,3.22493-6.96023,7.05467-6.96023h11.27906c3.13986,0,5.64795-2.56434,5.64795-5.69018v-10.66595c0-3.0356-2.5818-5.31418-5.64795-5.82387-1.93993-.32031-3.95272-.46583-5.88381-.45705l.00043,.00167Zm-6.10703,3.43374c1.16665,0,2.11893,.96048,2.11893,2.14113,0,1.17647-.9527,2.12818-2.11893,2.12818-1.17044,0-2.11893-.95129-2.11893-2.12818,0-1.18065,.94848-2.14113,2.11893-2.14113Z"/>
    <path class="uuid-160b3880-2e01-41e1-987e-59625077762d" d="M573.13427,128.32074v4.97577c0,3.85654-3.29611,7.10228-7.05467,7.10228h-11.27906c-3.08974,0-5.64795,2.62283-5.64795,5.69018v10.66595c0,3.0356,2.6614,4.8212,5.64795,5.69018,3.57451,1.04278,7.00413,1.2312,11.27906,0,2.84293-.81635,5.64795-2.4599,5.64795-5.69018v-4.26972h-11.27906v-1.42296h16.92701c3.28179,0,4.50657-2.27064,5.64795-5.67765,1.17887-3.50895,1.12875-6.88503,0-11.38454-.81118-3.24073-2.36026-5.67765-5.64795-5.67765h-4.23702l-.00421-.00167Zm-6.34289,27.01374c1.17044,0,2.11893,.95129,2.11893,2.12818,0,1.18065-.94848,2.14113-2.11893,2.14113-1.16665,0-2.11893-.96048-2.11893-2.14113,0-1.17647,.9527-2.12818,2.11893-2.12818Z"/>
    <path class="uuid-0a638060-de5c-42a2-b058-60a7c1ff2e64" d="M575.71945,169.70483c0,1.60761-6.77598,2.91083-15.13457,2.91083s-15.13457-1.30323-15.13457-2.91083h0c0-1.60761,6.77598-2.91084,15.13457-2.91084s15.13457,1.30323,15.13457,2.91084Z"/>
  </g>
  <g>
    <path d="M465.69831,320.76141c-.12284-.18277,0-.36555-.06142-.54832-.12284-1.76681-1.10555-3.28991-2.5796-4.20378-.98271-.54832-2.08825-.85294-3.1938-.91386-3.07096-.12185-6.0805,0-9.15146-.06092-.24568,0-.3071,.06092-.36851,.30462-1.47406,7.37184-2.94812,14.74369-4.4836,22.05461-.06142,.30462,.06142,.30462,.24568,.30462h3.86941c.3071,0,.3071-.12185,.36851-.36555,.36851-1.76681,.73703-3.53361,1.04412-5.23949,.06142-.30462,.18426-.36555,.49136-.36555,1.78116,0,3.56231,.12185,5.28205-.12185,1.16697-.06092,2.33393-.36555,3.37806-.91386,3.13238-1.88865,4.66786-4.7521,5.03637-8.28571,.06142-.12185,0-.30462,.06142-.48739v-1.15756h.06142Zm-5.89624,5.36134c-.55277,.97479-1.5969,1.64496-2.76386,1.76681-1.04412,.18277-2.14967,.30462-3.25522,.30462h-1.35122c-.24568,0-.3071-.06092-.24568-.30462,.61419-2.98529,1.22838-5.90966,1.78116-8.89495,0-.12185,.06142-.30462,.24568-.30462,1.71974-.12185,3.43947,0,5.09779,.36555,.92129,.12185,1.5969,.91386,1.5969,1.82773,.18425,1.82773-.18426,3.59454-1.10555,5.23949Z"/>
    <path d="M427.61841,320.45679c-.06142-1.15756-.49135-2.31512-1.22838-3.22899-1.10554-1.34034-2.82528-2.13235-4.60644-2.13235-3.07096-.12185-6.14192,0-9.21288-.06092-.3071,0-.3071,.12185-.36852,.36555-.67561,3.35084-1.35122,6.70168-2.02683,9.99159-.79845,4.08193-1.5969,8.16386-2.45677,12.30671h4.23792c.24568,0,.24568-.12185,.3071-.30462,.36852-1.76681,.73703-3.53361,1.04413-5.23949,.06142-.36555,.18426-.42647,.55277-.42647,1.78116,0,3.50089,.12185,5.22063-.06092,1.53548-.06092,3.07096-.60924,4.29934-1.52311,3.13238-2.4979,4.42218-5.84874,4.23792-9.68697Zm-6.01908,5.97058c-.61419,.79202-1.47406,1.34034-2.51819,1.40126-1.10554,.18277-2.21109,.30462-3.31664,.36555h-1.2898c-.24568,0-.3071-.06092-.24568-.30462,.61419-2.98529,1.22838-5.90966,1.78116-8.83403,.06142-.12185,0-.30462,.24568-.30462,1.71974-.12185,3.43947,0,5.09779,.36555,1.10554,.30462,1.53548,.73109,1.5969,1.82773,.18426,1.88865-.3071,3.83823-1.35122,5.48319Z"/>
    <path d="M432.59337,309.06394h4.36076l-.85987,4.2647c-.12284,.42647-.18426,.91387-.3071,1.34034-.06142,.30462,0,.36555,.3071,.36555,1.47406,0,2.8867-.06092,4.36076,.06092,1.16697,.06092,2.33393,.30462,3.37806,.79202,1.16697,.54832,1.90399,1.70588,1.90399,2.98529s-.18426,2.55882-.49135,3.77731c-.61419,2.92437-1.16697,5.78781-1.78116,8.65126-.06142,.30462-.18426,.36555-.49135,.36555h-3.74657c-.3071,0-.36851-.06092-.3071-.36555,.67561-3.22899,1.35122-6.5189,1.96541-9.74789,.12284-.42647,.12284-.79202,.12284-1.21849,.06142-.79202-.55277-1.52311-1.35122-1.58403h-.92129c-1.10554,0-2.21109,0-3.31664-.06093-.3071,0-.42993,.06092-.49135,.36555-.73703,3.83823-1.53548,7.67647-2.33393,11.5147-.24568,1.09664-.18426,1.09664-1.35122,1.09664h-2.94812c-.24568,0-.36851-.06092-.3071-.30462,1.53548-7.37184,3.00954-14.80461,4.54502-22.23738l.06142-.06092Z"/>
  </g>
  <g>
    <path class="uuid-f8d338e1-d968-40e3-b4fe-e426b60f79bd" d="M30.79566,126.71851c0,8.8386,5.17824,16.47689,12.6871,20.09654l-10.73814-29.18413c-1.24905,2.77709-1.94896,5.85034-1.94896,9.08759Z"/>
    <path class="uuid-f8d338e1-d968-40e3-b4fe-e426b60f79bd" d="M68.50357,125.5917c0-2.75967-.99932-4.67084-1.85644-6.15839-1.14111-1.83936-2.21068-3.39701-2.21068-5.23637,0-2.05265,1.56945-3.96339,3.78013-3.96339,.0998,0,.19447,.01232,.2917,.01785-4.00501-3.63963-9.34088-5.86181-15.20147-5.86181-7.86438,0-14.78341,4.00248-18.80855,10.06484,.52815,.01572,1.02588,.02677,1.44866,.02677,2.3546,0,5.99938-.2834,5.99938-.2834,1.2135-.07096,1.35656,1.69702,.14435,1.83936,0,0-1.21949,.14234-2.57648,.21287l8.19763,24.18698,4.92638-14.6558-3.50727-9.53203c-1.21221-.07053-2.3606-.21287-2.3606-.21287-1.21307-.07053-1.07086-1.91031,.14221-1.83936,0,0,3.71759,.2834,5.92956,.2834,2.35418,0,5.99937-.2834,5.99937-.2834,1.21435-.07096,1.35699,1.69702,.14435,1.83936,0,0-1.22206,.14234-2.57648,.21287l8.13509,24.00385,2.24537-7.44283c.9732-3.08854,1.7138-5.3069,1.7138-7.21849Z"/>
    <path class="uuid-f8d338e1-d968-40e3-b4fe-e426b60f79bd" d="M53.70174,128.67174l-6.75412,19.46813c2.01664,.58805,4.14936,.90969,6.35918,.90969,2.62146,0,5.13541-.44954,7.47545-1.26576-.0604-.0956-.11522-.19715-.1602-.30762l-6.92032-18.80445Z"/>
    <path class="uuid-f8d338e1-d968-40e3-b4fe-e426b60f79bd" d="M73.05943,116.00528c.0968,.71127,.15163,1.4748,.15163,2.29612,0,2.26595-.42663,4.81318-1.71166,7.99817l-6.87619,19.72051c6.69243-3.87119,11.1939-11.06334,11.1939-19.30115,.00043-3.88224-.99932-7.53291-2.75767-10.71365Z"/>
    <path class="uuid-f8d338e1-d968-40e3-b4fe-e426b60f79bd" d="M53.30681,100.68962c-14.46901,0-26.24116,11.67646-26.24116,26.02889,0,14.35413,11.77216,26.03016,26.24116,26.03016s26.24245-11.67603,26.24245-26.03016c-.00043-14.35243-11.77387-26.02889-26.24245-26.02889Zm0,50.86595c-13.8055,0-25.03795-11.14194-25.03795-24.83707,0-13.69427,11.23202-24.83537,25.03795-24.83537,13.80507,0,25.03666,11.1411,25.03666,24.83537,0,13.69512-11.23159,24.83707-25.03666,24.83707Z"/>
  </g>
  <g>
    <path id="uuid-48f90656-86cc-4d5e-95da-c755767a0832" data-name="Path 1948" class="uuid-06e61367-89db-4d09-902d-7bde60dca7ce" d="M232.17975,385.07788v-41.54501c.0686-.02432,.1423-.03052,.214-.01801h41.14999c.271,0,.24301-.02802,.24301,.24301v41.108c.008,.07184,.00394,.1445-.01199,.215-.06888,.02304-.14233,.02887-.21399,.017h-41.16704c-.0717,.01245-.1454,.00626-.214-.01801"/>
    <path id="uuid-d5965a48-a1bd-463f-962e-ec459d15cee2" data-name="Path 1949" class="uuid-c9d9363b-cbc4-454a-b025-01b8eacd10db" d="M264.03775,381.82088c-1.64236,.04074-3.26157-.39365-4.66299-1.25101-1.00467-.64362-1.82727-1.53439-2.38901-2.58701-.06699-.12299-.048-.172,.07001-.23901,.9613-.54935,1.91901-1.104,2.87299-1.664,.12701-.07401,.18301-.065,.26001,.061,.29379,.50232,.67355,.94913,1.12201,1.32001,1.12549,.92911,2.66629,1.17487,4.02499,.642,.70551-.19876,1.20587-.82504,1.24399-1.55701,.05844-.62473-.2186-1.23364-.728-1.60001-.38251-.28137-.79544-.51886-1.23099-.70801-.91199-.42999-1.85699-.78201-2.76099-1.228-.66669-.31796-1.29337-.71371-1.867-1.17899-1.29398-1.06036-2.00247-2.67584-1.90601-4.34601-.01239-2.392,1.6796-4.45407,4.02798-4.909,1.21283-.28302,2.47614-.26828,3.68201,.043,1.49957,.39932,2.76453,1.40622,3.48999,2.77802,.05499,.09399,.03101,.13101-.04999,.18301-.93802,.60001-1.875,1.2023-2.811,1.80701-.10001,.065-.14001,.03699-.19299-.056-.17911-.33124-.40964-.63199-.68301-.89099-.68021-.65588-1.68195-.85162-2.55899-.5-.87421,.34241-1.30536,1.32867-.96295,2.20288,.07913,.20206,.19623,.38708,.34494,.5451,.2886,.28088,.62051,.51352,.983,.689,.74899,.388,1.54001,.686,2.30801,1.03101,1.02927,.42801,1.99869,.98767,2.884,1.66501,1.17834,.9295,1.88495,2.33286,1.92999,3.83301,.09818,1.07724-.12192,2.15964-.633,3.11301-.67328,1.15173-1.75995,2.00381-3.039,2.383-.89432,.28906-1.82916,.43289-2.76901,.42599"/>
    <path id="uuid-51066ef5-8294-4cbc-a7c0-ed1e8a86847c" data-name="Path 1950" class="uuid-c9d9363b-cbc4-454a-b025-01b8eacd10db" d="M254.77375,369.70286c0,2.26199,.01501,4.52301-.00699,6.785-.00751,.90714-.22519,1.80017-.63599,2.60901-.55807,1.14261-1.56921,1.99924-2.78799,2.362-1.55426,.5101-3.23218,.50134-4.78101-.02499-1.4996-.51047-2.72516-1.61209-3.392-3.04901-.052-.10001-.04401-.15201,.06-.215,.97733-.58533,1.95267-1.17499,2.92599-1.76901,.10501-.064,.147-.05499,.20599,.05301,.20728,.38242,.44788,.74585,.71899,1.086,.71237,.79883,1.86478,1.0351,2.83401,.58099,.51569-.26492,.85654-.77887,.89999-1.35699,.05548-.33035,.0806-.66507,.07501-1,0-4.30469-.00168-8.61002-.005-12.91599,0-.20499,.05701-.245,.25-.24399,1.14734,.01001,2.29468,.01001,3.44199,0,.17999,0,.216,.05099,.215,.22-.00534,2.29465-.00534,4.58932,0,6.884h-.01401"/>
  </g>
  <g>
    <path id="uuid-50088a25-9d51-40c4-885e-cb6d461072fb" data-name="Path 1951" class="uuid-f8ae3ed2-7059-45b4-b9ee-4ab0fcfba944" d="M202.46674,350.84686l-2.862,32.065-12.866,3.573-12.83-3.56201-2.86-32.07098,31.418-.005Z"/>
    <path id="uuid-2f548f17-2447-4d73-adf5-fb917072055e" data-name="Path 1952" class="uuid-1a76b102-cc6b-470a-9c52-7f61c3a5057d" d="M197.15375,380.87087l2.446-27.39999h-12.843v30.284l10.397-2.884Z"/>
    <path id="uuid-39f6dca6-9051-4594-8173-30a2aceb145e" data-name="Path 1953" class="uuid-f50c51d1-30a7-49d2-8d76-1eb5fd86b3a1" d="M177.60275,365.36387l.35201,3.93301h8.8v-3.93301h-9.15201Z"/>
    <path id="uuid-d41b51f9-499d-457a-aa67-fb612ba77bff" data-name="Path 1954" class="uuid-f50c51d1-30a7-49d2-8d76-1eb5fd86b3a1" d="M186.75774,357.40187h-9.86301l.358,3.93301h9.506l-.00099-3.93301Z"/>
    <path id="uuid-707931c3-5385-4b01-af1d-f91ee0c4b5f8" data-name="Path 1955" class="uuid-f50c51d1-30a7-49d2-8d76-1eb5fd86b3a1" d="M186.75774,379.67087v-4.09201h-.017l-4.38-1.18301-.28101-3.13699h-3.948l.55099,6.177,8.05701,2.23599,.01801-.00098Z"/>
    <path id="uuid-14b4836a-7c78-47bb-b3c5-b03c025e182c" data-name="Path 1956" d="M178.44275,342.13187h4.76399v1.992h-2.772v1.99301h2.772v1.992h-4.76401l.00002-5.97702Z"/>
    <path id="uuid-7a3f2eb7-a492-441c-8ba6-2bae4b1d9f55" data-name="Path 1957" d="M184.15874,342.13187h4.76401v1.73199h-2.769v.34698h2.772v3.98401h-4.76399v-1.82199h2.771v-.34698h-2.771l-.00302-3.89401Z"/>
    <path id="uuid-d2c98e76-6594-42d6-8c08-83fd42d0c096" data-name="Path 1958" d="M189.87575,342.13187h4.761v1.73199h-2.772v.34698h2.772v3.98401h-4.76399v-1.82199h2.771v-.34698h-2.771l.00299-3.89401Z"/>
    <path id="uuid-76f0edf7-705e-4eba-aedb-6c60cbf84bd1" data-name="Path 1959" class="uuid-672ac8e4-fa1f-4da1-ad76-0504c8aa2c34" d="M191.58674,369.29188l-.457,5.10001-4.386,1.18399v4.09299l8.063-2.23499,.06-.66501,.924-10.35501,.10001-1.05701,.71001-7.961h-9.85201v3.93301h5.54199l-.358,4.02802h-5.18401v3.935h4.83801Z"/>
  </g>
  <g>
    <path id="uuid-6ecefb70-29c7-45b7-9624-f38851a4e73d" data-name="Path 1960" d="M107.83774,342.29088h1.977v1.961h1.823v-1.961h1.978v5.93399h-1.978v-1.978h-1.80499v1.978h-1.995m8.392-3.95499h-1.745v-1.978h5.478v1.978h-1.754v3.95499h-1.978m4.60001-5.93399h2.073l1.272,2.09,1.27299-2.09h2.073v5.93399h-1.978v-2.94101l-1.384,2.133-1.38499-2.133v2.94101h-1.94299m7.67101-5.93399h1.978v3.97299h2.8v1.961h-4.782"/>
    <path id="uuid-730abe71-1877-43a9-aeaa-d04605a8a46a" data-name="Path 1961" class="uuid-25c3d17e-0bde-4d7f-85d9-4d57fc16dc89" d="M107.76874,382.79388l-2.838-31.853h31.2l-2.839,31.83499-12.787,3.543"/>
    <path id="uuid-f9dc3525-89b4-489e-9bc7-6df36c35a93d" data-name="Path 1962" class="uuid-0e8db0e6-0185-4755-bfed-bc110ceadd1c" d="M120.53075,383.61086v-30.05499h12.75301l-2.43401,27.17499"/>
    <path id="uuid-c299650f-af60-4d9a-8a0b-033bcbb8749b" data-name="Path 1963" class="uuid-f50c51d1-30a7-49d2-8d76-1eb5fd86b3a1" d="M110.72675,357.45188h9.8v3.89999h-5.521l.361,4h5.16v3.89999h-8.735m.172,1.961h3.922l.275,3.12201,4.368,1.16901v4.077l-8.015-2.23599"/>
    <path id="uuid-28a84fb1-b5b4-44b3-bc7a-a0466996bca3" data-name="Path 1964" class="uuid-672ac8e4-fa1f-4da1-ad76-0504c8aa2c34" d="M130.29774,357.45188h-9.791v3.89999h9.425m-.35201,4h-9.073v3.89999h4.81599l-.455,5.073-4.36099,1.17001v4.05801l8-2.21799"/>
  </g>
</svg>