<?xml version="1.0" encoding="UTF-8"?>
<svg id="uuid-f099993b-be2c-4404-827d-45b1e4e5d72c" data-name="Layer 1" xmlns="http://www.w3.org/2000/svg" width="537.6" height="464.28545" xmlns:xlink="http://www.w3.org/1999/xlink" viewBox="0 0 537.6 464.28545">
  <defs>
    <style>
      .uuid-4792939a-c592-4e49-b10a-e78594fd314b {
        stroke: #fff;
        stroke-linecap: round;
        stroke-linejoin: round;
        stroke-width: 3.73273px;
      }

      .uuid-4792939a-c592-4e49-b10a-e78594fd314b, .uuid-d3c3434c-c6a4-43ff-aa0b-17192ea52138 {
        fill: none;
      }

      .uuid-67327c03-9571-4012-a951-2e36846083da {
        filter: url(#uuid-825cb156-aa46-4b18-b0c2-7553ad12a6e8);
      }

      .uuid-67327c03-9571-4012-a951-2e36846083da, .uuid-af1aa831-6f7f-4f1b-8dbf-fa1e4f79e1fc, .uuid-6222d332-2d1f-4d4a-aa42-30d7c74a0c02, .uuid-69246f7f-01a2-46ac-8ec6-cf7dbfe78d95, .uuid-266b50f1-434f-493c-b661-7faced813285, .uuid-b782d8be-d7d6-482b-8c8e-25023ba29641 {
        fill: #fff;
      }

      .uuid-67327c03-9571-4012-a951-2e36846083da, .uuid-6222d332-2d1f-4d4a-aa42-30d7c74a0c02, .uuid-69246f7f-01a2-46ac-8ec6-cf7dbfe78d95, .uuid-d3c3434c-c6a4-43ff-aa0b-17192ea52138, .uuid-b782d8be-d7d6-482b-8c8e-25023ba29641 {
        stroke-miterlimit: 10;
      }

      .uuid-67327c03-9571-4012-a951-2e36846083da, .uuid-69246f7f-01a2-46ac-8ec6-cf7dbfe78d95 {
        stroke-width: .41135px;
      }

      .uuid-67327c03-9571-4012-a951-2e36846083da, .uuid-69246f7f-01a2-46ac-8ec6-cf7dbfe78d95, .uuid-b782d8be-d7d6-482b-8c8e-25023ba29641 {
        stroke: #cdd3e0;
      }

      .uuid-2919447d-e937-4e5b-b617-b08ca2035fda {
        fill: #f2f6fb;
      }

      .uuid-f0271f5f-780b-45d6-b28f-580b59c76bb4 {
        fill: #e6ebf5;
      }

      .uuid-a51cce10-12e6-4d2f-874e-cee92cbad741 {
        fill: #f5c400;
      }

      .uuid-3f4e4381-83f6-4cbd-9177-e430c850025a {
        fill: #fc6347;
      }

      .uuid-adec0055-0785-4576-bcc0-82be520d0306 {
        fill: #8b909e;
      }

      .uuid-ebba2103-ca68-467e-8803-285ceaf6740a {
        fill: #cdd4e6;
      }

      .uuid-c8a00367-15bf-4e12-81ed-483eb3ee5b12 {
        fill: #b2b7c7;
      }

      .uuid-e9ff007b-ad46-4c0a-a0ab-29ac9f359391 {
        fill: #bfc5d6;
      }

      .uuid-62717c55-3c69-4cf2-8d42-12430e847b2c {
        fill: #bdc3d4;
      }

      .uuid-83a4f04d-fcf2-44a5-ab3c-fbdacca0c207 {
        fill: #cfd5e8;
      }

      .uuid-6ca73460-a484-492a-8aa8-b7393a9256bd {
        fill: #22a682;
      }

      .uuid-52f0fa84-7961-4bfe-a009-aa073bab5316 {
        fill: #1d7adf;
      }

      .uuid-6222d332-2d1f-4d4a-aa42-30d7c74a0c02 {
        filter: url(#uuid-9bc7f4f2-8bb0-4587-8244-57907c29060d);
        stroke: #000;
        stroke-width: .2666px;
      }

      .uuid-69246f7f-01a2-46ac-8ec6-cf7dbfe78d95 {
        filter: url(#uuid-c1e23e01-35c6-4074-a6c2-d0bf0f9dc3da);
      }

      .uuid-225e9b01-7205-43cb-aff5-b9b83fe54695 {
        filter: url(#uuid-ff469057-2174-4303-9f24-d5e4460e2186);
      }

      .uuid-49db8b49-9867-4d64-851a-557da99a8cf1 {
        filter: url(#uuid-95c35772-0940-4d93-bfd3-e2f9de886b49);
      }

      .uuid-266b50f1-434f-493c-b661-7faced813285 {
        opacity: .2;
      }

      .uuid-d3c3434c-c6a4-43ff-aa0b-17192ea52138 {
        stroke: #b4bdd6;
        stroke-width: .59245px;
      }

      .uuid-b782d8be-d7d6-482b-8c8e-25023ba29641 {
        filter: url(#uuid-973b976c-d6e4-423b-b054-a08b9b6a94c5);
        stroke-width: .38127px;
      }
    </style>
    <filter id="uuid-ff469057-2174-4303-9f24-d5e4460e2186" data-name="drop-shadow-1" filterUnits="userSpaceOnUse">
      <feOffset dx="1.33437" dy="5.33747"/>
      <feGaussianBlur result="uuid-0601d170-f6b5-4aa0-85f4-f06ff77250a3" stdDeviation="5.92453"/>
      <feFlood flood-color="#082744" flood-opacity=".1"/>
      <feComposite in2="uuid-0601d170-f6b5-4aa0-85f4-f06ff77250a3" operator="in"/>
      <feComposite in="SourceGraphic"/>
    </filter>
    <filter id="uuid-9bc7f4f2-8bb0-4587-8244-57907c29060d" data-name="drop-shadow-2" filterUnits="userSpaceOnUse">
      <feOffset dx="1.69211" dy="3.38422"/>
      <feGaussianBlur result="uuid-d0fb90f9-438a-4b3e-bb52-d5d636601458" stdDeviation="2.53817"/>
      <feFlood flood-color="#082744" flood-opacity=".05"/>
      <feComposite in2="uuid-d0fb90f9-438a-4b3e-bb52-d5d636601458" operator="in"/>
      <feComposite in="SourceGraphic"/>
    </filter>
    <filter id="uuid-95c35772-0940-4d93-bfd3-e2f9de886b49" data-name="drop-shadow-3" filterUnits="userSpaceOnUse">
      <feOffset dx="1.18491" dy="2.36981"/>
      <feGaussianBlur result="uuid-d9516a5e-7a04-451c-a2b5-cd8d3a62aa6d" stdDeviation="2.96227"/>
      <feFlood flood-color="#082744" flood-opacity=".2"/>
      <feComposite in2="uuid-d9516a5e-7a04-451c-a2b5-cd8d3a62aa6d" operator="in"/>
      <feComposite in="SourceGraphic"/>
    </filter>
    <filter id="uuid-825cb156-aa46-4b18-b0c2-7553ad12a6e8" data-name="drop-shadow-4" filterUnits="userSpaceOnUse">
      <feOffset dx="1.641" dy="6.564"/>
      <feGaussianBlur result="uuid-eaeb8904-a712-46d6-9d35-5532c25eb963" stdDeviation="3.55472"/>
      <feFlood flood-color="#082744" flood-opacity=".06"/>
      <feComposite in2="uuid-eaeb8904-a712-46d6-9d35-5532c25eb963" operator="in"/>
      <feComposite in="SourceGraphic"/>
    </filter>
    <filter id="uuid-973b976c-d6e4-423b-b054-a08b9b6a94c5" data-name="drop-shadow-5" filterUnits="userSpaceOnUse">
      <feOffset dx="1.641" dy="6.564"/>
      <feGaussianBlur result="uuid-4be3320a-1e4a-4a83-a9b0-2ca3a2702d79" stdDeviation="3.55472"/>
      <feFlood flood-color="#082744" flood-opacity=".06"/>
      <feComposite in2="uuid-4be3320a-1e4a-4a83-a9b0-2ca3a2702d79" operator="in"/>
      <feComposite in="SourceGraphic"/>
    </filter>
    <filter id="uuid-c1e23e01-35c6-4074-a6c2-d0bf0f9dc3da" data-name="drop-shadow-6" filterUnits="userSpaceOnUse">
      <feOffset dx=".96776" dy="3.87103"/>
      <feGaussianBlur result="uuid-1bab5435-f8af-41bc-b0a7-6d7867750857" stdDeviation="2.09635"/>
      <feFlood flood-color="#082744" flood-opacity=".06"/>
      <feComposite in2="uuid-1bab5435-f8af-41bc-b0a7-6d7867750857" operator="in"/>
      <feComposite in="SourceGraphic"/>
    </filter>
  </defs>
  <g>
    <rect class="uuid-d3c3434c-c6a4-43ff-aa0b-17192ea52138" x="113.70726" y="32.86116" width="186.20294" height="110.94571" rx="5.579" ry="5.579"/>
    <g class="uuid-225e9b01-7205-43cb-aff5-b9b83fe54695">
      <path class="uuid-af1aa831-6f7f-4f1b-8dbf-fa1e4f79e1fc" d="M161.18837,121.28501H432.39144v195.11401c0,4.60728-3.74053,8.34782-8.34782,8.34782H169.53618c-4.60728,0-8.34782-3.74053-8.34782-8.34782V121.28501h0Z"/>
      <path class="uuid-83a4f04d-fcf2-44a5-ab3c-fbdacca0c207" d="M169.53618,93.23391h254.50744c4.60728,0,8.34782,3.74053,8.34782,8.34782v19.70329H161.18837v-19.70329c0-4.60728,3.74053-8.34782,8.34782-8.34782Z"/>
      <g>
        <ellipse class="uuid-af1aa831-6f7f-4f1b-8dbf-fa1e4f79e1fc" cx="176.39082" cy="107.25946" rx="5.10009" ry="5.08375"/>
        <ellipse class="uuid-af1aa831-6f7f-4f1b-8dbf-fa1e4f79e1fc" cx="192.23243" cy="107.25946" rx="5.10009" ry="5.08375"/>
        <ellipse class="uuid-af1aa831-6f7f-4f1b-8dbf-fa1e4f79e1fc" cx="208.07405" cy="107.25946" rx="5.10009" ry="5.08375"/>
      </g>
    </g>
    <g>
      <g>
        <rect class="uuid-2919447d-e937-4e5b-b617-b08ca2035fda" x="211.14578" y="161.87165" width="177.21743" height="25.18709" rx="4.14717" ry="4.14717"/>
        <g>
          <path class="uuid-ebba2103-ca68-467e-8803-285ceaf6740a" d="M253.39513,174.46224c0,5.34721-1.75649,10.28632-4.71758,14.27291-4.39117,5.90926-11.43489,9.74219-19.37465,9.74219s-14.97757-3.82715-19.36874-9.73612c-2.96702-3.99265-4.71758-8.93176-4.71758-14.27897,0-13.26146,10.78216-24.00917,24.08632-24.00917s24.09222,10.74771,24.09222,24.00917Z"/>
          <ellipse class="uuid-2919447d-e937-4e5b-b617-b08ca2035fda" cx="229.30466" cy="169.76472" rx="10.62859" ry="10.59453"/>
          <path class="uuid-2919447d-e937-4e5b-b617-b08ca2035fda" d="M248.67755,188.73514c-4.39117,5.90926-11.43489,9.74219-19.37465,9.74219s-14.97757-3.82715-19.36874-9.73612c2.4211-2.74466,5.63141-4.77939,9.27492-5.76138,.80702-.21878,1.66153-.23062,2.46855-.02946,2.44483,.60912,4.99646,.93448,7.62527,.93448s5.18635-.32536,7.62524-.93448c.80702-.20116,1.66153-.18932,2.46855,.02368,3.64945,.97592,6.85976,3.01658,9.28086,5.76109Z"/>
        </g>
      </g>
      <g>
        <rect class="uuid-2919447d-e937-4e5b-b617-b08ca2035fda" x="211.14578" y="235.31105" width="177.21743" height="25.18709" rx="4.14717" ry="4.14717"/>
        <g>
          <g>
            <path class="uuid-ebba2103-ca68-467e-8803-285ceaf6740a" d="M229.30572,246.77799c-7.22343,0-13.1004-5.85842-13.1004-13.05871v-10.77876c0-7.20028,5.87697-13.05813,13.1004-13.05813s13.1004,5.85785,13.1004,13.05813v10.77876c0,7.20028-5.87697,13.05871-13.1004,13.05871Zm0-32.66843c-4.88516,0-8.85964,3.96145-8.85964,8.83096v10.77876c0,4.8695,3.97448,8.83154,8.85964,8.83154s8.85964-3.96203,8.85964-8.83154v-10.77876c0-4.8695-3.97448-8.83096-8.85964-8.83096Z"/>
            <rect class="uuid-f0271f5f-780b-45d6-b28f-580b59c76bb4" x="209.6902" y="228.3518" width="39.23132" height="39.1056" rx="4.47852" ry="4.47852"/>
            <path class="uuid-ebba2103-ca68-467e-8803-285ceaf6740a" d="M234.34472,243.08903c0-2.77412-2.25598-5.02287-5.03887-5.02287s-5.03887,2.24875-5.03887,5.02287c0,1.89971,1.05863,3.55234,2.61947,4.4058l-1.71165,10.24805h8.2621l-1.71165-10.24805c1.56084-.85346,2.61947-2.50609,2.61947-4.4058Z"/>
          </g>
          <g>
            <g>
              <path class="uuid-ebba2103-ca68-467e-8803-285ceaf6740a" d="M262.03786,254.47447l-2.23802-1.62721,2.86156-3.63913-4.45749-1.31644,.862-2.61498,4.34768,1.57291-.12836-4.6448h2.77l-.1469,4.6448,4.36593-1.57291,.84375,2.61498-4.45749,1.31644,2.8433,3.63913-2.23802,1.62721-2.60484-3.82167-2.62309,3.82167Z"/>
              <path class="uuid-ebba2103-ca68-467e-8803-285ceaf6740a" d="M278.25364,254.47447l-2.23802-1.62721,2.86156-3.63913-4.45749-1.31644,.862-2.61498,4.34768,1.57291-.12836-4.6448h2.77l-.1469,4.6448,4.36593-1.57291,.84375,2.61498-4.45749,1.31644,2.8433,3.63913-2.23802,1.62721-2.60484-3.82167-2.62309,3.82167Z"/>
              <path class="uuid-ebba2103-ca68-467e-8803-285ceaf6740a" d="M294.46941,254.47447l-2.23802-1.62721,2.86156-3.63913-4.45749-1.31644,.862-2.61498,4.34768,1.57291-.12836-4.6448h2.77l-.1469,4.6448,4.36593-1.57291,.84375,2.61498-4.45749,1.31644,2.8433,3.63913-2.23802,1.62721-2.60484-3.82167-2.62309,3.82167Z"/>
              <path class="uuid-ebba2103-ca68-467e-8803-285ceaf6740a" d="M310.68489,254.47447l-2.23802-1.62721,2.86156-3.63913-4.45749-1.31644,.862-2.61498,4.34768,1.57291-.12836-4.6448h2.77l-.1469,4.6448,4.36593-1.57291,.84375,2.61498-4.45749,1.31644,2.8433,3.63913-2.23802,1.62721-2.60484-3.82167-2.62309,3.82167Z"/>
              <path class="uuid-ebba2103-ca68-467e-8803-285ceaf6740a" d="M326.90066,254.47447l-2.23802-1.62721,2.86156-3.63913-4.45749-1.31644,.862-2.61498,4.34768,1.57291-.12865-4.6448h2.77l-.14603,4.6448,4.36593-1.57291,.84375,2.61498-4.45865,1.31644,2.84417,3.63913-2.23802,1.62721-2.60542-3.82167-2.6228,3.82167Z"/>
            </g>
            <g>
              <path class="uuid-ebba2103-ca68-467e-8803-285ceaf6740a" d="M326.90081,254.47447l-2.23802-1.62721,2.86156-3.63913-4.45749-1.31644,.862-2.61498,4.34768,1.57291-.12836-4.6448h2.77l-.1469,4.6448,4.36593-1.57291,.84375,2.61498-4.45749,1.31644,2.8433,3.63913-2.23802,1.62721-2.60484-3.82167-2.62309,3.82167Z"/>
              <path class="uuid-ebba2103-ca68-467e-8803-285ceaf6740a" d="M343.11629,254.47447l-2.23802-1.62721,2.86156-3.63913-4.45749-1.31644,.862-2.61498,4.34768,1.57291-.12836-4.6448h2.77l-.1469,4.6448,4.36593-1.57291,.84375,2.61498-4.45749,1.31644,2.8433,3.63913-2.23802,1.62721-2.60484-3.82167-2.62309,3.82167Z"/>
              <path class="uuid-ebba2103-ca68-467e-8803-285ceaf6740a" d="M359.33206,254.47447l-2.23802-1.62721,2.86156-3.63913-4.45749-1.31644,.862-2.61498,4.34768,1.57291-.12865-4.6448h2.77l-.14603,4.6448,4.36593-1.57291,.84375,2.61498-4.45865,1.31644,2.84417,3.63913-2.23802,1.62721-2.60542-3.82167-2.6228,3.82167Z"/>
            </g>
          </g>
        </g>
      </g>
    </g>
    <rect class="uuid-6222d332-2d1f-4d4a-aa42-30d7c74a0c02" x="70.3613" y="4.40627" width="89.67806" height="66.23236" rx="33.11615" ry="33.11615"/>
    <path class="uuid-a51cce10-12e6-4d2f-874e-cee92cbad741" d="M123.4613,29.75921c0-4.54768-3.69859-8.23458-8.261-8.23458s-8.26095,3.6869-8.26095,8.23458c0,3.39158,2.05828,6.30225,4.99661,7.56393v15.52629c0,1.79705,1.46151,3.25382,3.26434,3.25382s3.26439-1.45678,3.26439-3.25382v-15.52629c2.93833-1.26169,4.99661-4.17235,4.99661-7.56393Z"/>
    <g class="uuid-49db8b49-9867-4d64-851a-557da99a8cf1">
      <path class="uuid-6ca73460-a484-492a-8aa8-b7393a9256bd" d="M462.3824,115.41971v-34.37683l-30.20742-6.80952-30.20742,6.80952v34.37683s-3.04545,19.85494,30.20742,35.03335c33.25287-15.17822,30.20742-35.03335,30.20742-35.03335Z"/>
      <ellipse class="uuid-266b50f1-434f-493c-b661-7faced813285" cx="431.62603" cy="109.59789" rx="19.87136" ry="19.80768"/>
      <path id="uuid-7a025866-9e54-4980-810a-125d839d569e" data-name="Icon feather-check" class="uuid-4792939a-c592-4e49-b10a-e78594fd314b" d="M441.83586,102.59839l-14.03667,13.99901-6.38298-6.36434"/>
    </g>
    <g>
      <rect class="uuid-67327c03-9571-4012-a951-2e36846083da" x="380.19261" y="296.49145" width="144.85944" height="93.8965" rx="6.34645" ry="6.34645"/>
      <g>
        <g>
          <g>
            <path class="uuid-ebba2103-ca68-467e-8803-285ceaf6740a" d="M436.04904,326.33826c-.85216,2.11251-2.25707,4.31639-3.70808,6.5892-.85216,1.30876-1.72738,2.6859-2.53358,4.13254h-4.95174c-1.05951,0-1.93473-.84971-1.93473-1.90569v-6.91037c0-1.05598,.87522-1.90569,1.93473-1.90569h11.1934Z"/>
            <path class="uuid-ebba2103-ca68-467e-8803-285ceaf6740a" d="M426.19152,348.86014c0,.36713,0,.73481,.02291,1.10194h-19.99154c-1.05937,0-1.91153-.87269-1.91153-1.92867v-6.88738c0-1.05598,.85216-1.90513,1.91153-1.90513h21.00495c.46066,0,.89827,.16086,1.22075,.43607-1.33588,2.77782-2.25707,5.80843-2.25707,9.18318Z"/>
            <path class="uuid-ebba2103-ca68-467e-8803-285ceaf6740a" d="M430.06084,362.84174h-5.2052c-1.05951,0-1.93473-.84971-1.93473-1.90569v-6.91037c0-1.05598,.87522-1.90569,1.93473-1.90569h1.52003c.41455,4.08658,1.70433,7.71412,3.68516,10.72174Z"/>
            <rect class="uuid-ebba2103-ca68-467e-8803-285ceaf6740a" x="396.29283" y="326.34158" width="24.8252" height="10.72312" rx="1.91521" ry="1.91521"/>
            <rect class="uuid-ebba2103-ca68-467e-8803-285ceaf6740a" x="396.29283" y="352.1183" width="24.8252" height="10.72312" rx="1.91521" ry="1.91521"/>
            <rect class="uuid-ebba2103-ca68-467e-8803-285ceaf6740a" x="404.3129" y="365.00666" width="24.8252" height="10.72312" rx="1.91521" ry="1.91521"/>
            <path class="uuid-ebba2103-ca68-467e-8803-285ceaf6740a" d="M455.7181,372.98897v.82617c0,1.05598-.85216,1.90569-1.91153,1.90569h-20.98189c-1.05951,0-1.93473-.84971-1.93473-1.90569v-6.88738c0-.73425,.41455-1.35416,1.0134-1.69831,4.42206,5.02766,11.23951,7.91982,19.69212,7.98932h.25332c1.33588,0,2.62565-.0695,3.86932-.2298Z"/>
          </g>
          <g>
            <rect class="uuid-ebba2103-ca68-467e-8803-285ceaf6740a" x="476.16187" y="326.34158" width="24.8252" height="10.72312" rx="1.91521" ry="1.91521"/>
            <path class="uuid-ebba2103-ca68-467e-8803-285ceaf6740a" d="M482.36586,341.14603v6.88738c0,1.05598-.85216,1.92867-1.91153,1.92867h-1.45101c.29942-3.7189-.2304-7.39239-1.52017-10.72118h2.97119c1.05937,0,1.91153,.84915,1.91153,1.90513Z"/>
            <rect class="uuid-ebba2103-ca68-467e-8803-285ceaf6740a" x="484.12663" y="339.22994" width="24.8252" height="10.72312" rx="1.91521" ry="1.91521"/>
            <path class="uuid-ebba2103-ca68-467e-8803-285ceaf6740a" d="M500.97555,354.02568v6.91037c0,1.05598-.85216,1.90569-1.91167,1.90569h-20.98189c-1.05951,0-1.91167-.84971-1.91167-1.90569v-1.17088c.43761-.80375,.8062-1.62992,1.15159-2.47964,.66801-1.69887,1.15159-3.42071,1.42796-5.16554h20.31402c1.05951,0,1.91167,.84971,1.91167,1.90569Z"/>
            <path class="uuid-ebba2103-ca68-467e-8803-285ceaf6740a" d="M474.35085,328.24395v5.44074c-.69092-.89511-1.47407-1.74427-2.32623-2.52504-.59885-.55097-1.26672-.96461-1.9807-1.2628,.18429-1.1479,.34553-2.31878,.41455-3.55859h1.9807c1.05951,0,1.91167,.84971,1.91167,1.90569Z"/>
            <path class="uuid-ebba2103-ca68-467e-8803-285ceaf6740a" d="M482.36586,366.92776v6.88738c0,1.05598-.85216,1.90569-1.91153,1.90569h-20.98203c-1.05937,0-1.93459-.84971-1.93459-1.90569v-1.07896c6.03431-1.01002,11.17034-3.69592,14.92453-7.73654h7.99209c1.05937,0,1.91153,.87213,1.91153,1.92811Z"/>
            <rect class="uuid-ebba2103-ca68-467e-8803-285ceaf6740a" x="484.12663" y="365.00666" width="24.8252" height="10.72312" rx="1.91521" ry="1.91521"/>
          </g>
        </g>
        <path class="uuid-3f4e4381-83f6-4cbd-9177-e430c850025a" d="M468.88769,335.22263c-1.42221-1.3115,1.54943,7.70165-4.18151,6.81268-5.49749-.88845,1.16738-9.49974,.59438-18.93594-.02125-2.75059-.91282-5.35293-2.46224-7.44751-.50939-.74072-1.14614-1.43857-1.84662-2.03105-.07482-.03395-.14981,.00122-.08486,.10589,.55189,.63483,.91269,1.33268,1.08253,2.00987,.65799,2.13694-.31844,4.06209-2.01646,3.19482-3.94806-2.03105-3.41742-5.22586-5.98564-8.35714-.91269-1.12141-2.24991-2.24283-4.35122-3.27953-.53064-.10589-.65799,.25362-.27594,.67719,.38205,.4654,.76409,1.01552,1.12489,1.73455,.48828,.97317,.91269,2.20047,1.23112,3.78729,.80658,4.1468,.04249,11.04472-4.37247,13.24467-4.86062,2.41225-4.30886-9.85925-5.3064-3.06775-1.35847,9.4362-11.14344,16.5242-11.14344,25.72796,0,11.93265,7.83225,19.46436,20.69496,19.57077,23.32692,.14773,28.01782-23.86634,17.29892-33.74677Zm-17.34141,25.495c-4.54231,0-8.27791-3.19482-8.1082-7.76467,.36093-3.19482,1.48582-6.24139,3.31119-8.82307,3.88432-6.19903,5.22155-8.73784,5.41263-8.73784,.23345,0-1.63441,3.72376,2.6532,9.98632,2.48336,3.63904,4.64841,3.76611,5.07282,7.57458,.50952,4.54867-3.79934,7.76467-8.34165,7.76467Z"/>
      </g>
    </g>
    <g>
      <path class="uuid-e9ff007b-ad46-4c0a-a0ab-29ac9f359391" d="M266.07791,171.11955h1.5633v5.62228c0,.61621-.1452,1.15873-.43559,1.62577-.29128,.46793-.69925,.83286-1.22481,1.0948s-1.14018,.39335-1.84211,.39335c-.70549,0-1.32101-.13141-1.84657-.39335s-.93353-.62687-1.22303-1.0948c-.2895-.46704-.4338-1.00956-.4338-1.62577v-5.62228h1.56419v5.49175c0,.35872,.07928,.67837,.23784,.95806,.15856,.28058,.38303,.4999,.67253,.65795s.63245,.23707,1.02884,.23707,.73934-.07902,1.03062-.23707c.29039-.15805,.51486-.37736,.67253-.65795,.15678-.27969,.23605-.59934,.23605-.95806v-5.49175Z"/>
      <path class="uuid-e9ff007b-ad46-4c0a-a0ab-29ac9f359391" d="M274.39502,174.97666l-1.39138,.15183c-.03919-.14029-.10778-.2717-.20488-.39512s-.22715-.22287-.38927-.29834c-.16301-.07547-.36254-.11365-.5986-.11365-.318,0-.58434,.06837-.79902,.206-.21557,.13674-.32157,.31521-.3189,.53364-.00267,.18735,.06681,.34007,.20933,.45816,.14163,.1172,.3768,.21399,.70549,.28946l1.10455,.2353c.61285,.1323,1.06892,.34096,1.36822,.62598,.2993,.28591,.45073,.65972,.4534,1.12232-.00267,.40667-.12204,.76449-.35631,1.07349-.23516,.30988-.56029,.5514-.97628,.72543-.41599,.17314-.89344,.26016-1.43325,.26016-.79278,0-1.43058-.16604-1.91337-.49812-.48369-.33208-.77141-.79468-.86494-1.3887l1.48848-.14295c.0677,.29124,.21111,.51144,.43024,.65972s.50418,.22287,.85514,.22287c.36254,0,.65472-.07458,.87474-.22287,.22091-.14828,.33137-.33208,.33137-.55051,0-.18469-.07126-.33741-.21289-.45816-.14163-.11987-.36165-.21221-.66006-.27703l-1.10455-.23086c-.62087-.12875-1.0805-.34717-1.37802-.65351-.29841-.30722-.44538-.69524-.44271-1.16583-.00267-.39779,.106-.74318,.32691-1.0362,.22002-.29301,.52823-.51943,.92284-.68103,.39461-.16071,.85068-.24151,1.36822-.24151,.75894,0,1.35664,.1616,1.79401,.48303,.43648,.32231,.70727,.75828,.81149,1.30701Z"/>
      <path class="uuid-e9ff007b-ad46-4c0a-a0ab-29ac9f359391" d="M278.66092,179.85131c-.64848,0-1.20877-.13496-1.67999-.40578-.47033-.26993-.83198-.65351-1.08496-1.15074s-.37947-1.08414-.37947-1.75896c0-.66416,.12738-1.24752,.38125-1.75008,.25476-.50256,.61107-.89502,1.06892-1.17649s.99588-.42265,1.61407-.42265c.39906,0,.77675,.06393,1.13217,.19179,.35542,.12697,.67075,.32409,.94422,.58958,.27436,.26637,.48992,.60467,.64759,1.01489,.15678,.4111,.23605,.89857,.23605,1.46506v.46616h-5.30809v-1.02554h3.84545c-.00356-.29124-.06681-.5514-.18973-.77959-.12382-.22819-.29663-.40755-.51665-.53985-.22091-.13141-.47745-.19712-.76962-.19712-.31177,0-.58613,.07458-.82218,.22464s-.41955,.34629-.5496,.58869c-.13094,.24151-.19775,.507-.20042,.79557v.89502c0,.37559,.06859,.69701,.20666,.96428,.13718,.26815,.32958,.47237,.57722,.61355,.24763,.14207,.53713,.21221,.8685,.21221,.2218,0,.42312-.03108,.60305-.09412s.33582-.15627,.46765-.27969,.2316-.27614,.2993-.45816l1.42523,.15982c-.08997,.37559-.261,.70234-.51219,.98115-.25209,.27881-.57276,.49457-.96381,.64729-.39016,.15272-.83732,.22908-1.34061,.22908Z"/>
      <path class="uuid-e9ff007b-ad46-4c0a-a0ab-29ac9f359391" d="M282.82972,179.72522v-6.45425h1.47957v1.07527h.0677c.11847-.37204,.32157-.65972,.60929-.86305s.6173-.30455,.98875-.30455c.08373,0,.17904,.00355,.28416,.01065,.10511,.00622,.1933,.01687,.26367,.03108v1.39935c-.06503-.0222-.16657-.04262-.30553-.06127-.13896-.01776-.27347-.02664-.40263-.02664-.27792,0-.52734,.05949-.74825,.17847s-.39461,.28324-.5211,.49368c-.12649,.20955-.18973,.45195-.18973,.7272v3.79406h-1.52589Z"/>
      <path class="uuid-e9ff007b-ad46-4c0a-a0ab-29ac9f359391" d="M289.06421,175.94359v3.78163h-1.52589v-6.45425h1.45908v1.09658h.07572c.14876-.36138,.38659-.64818,.7144-.86128s.7331-.31965,1.2159-.31965c.44717,0,.83732,.09501,1.17047,.28591s.59147,.46616,.77497,.82754c.18439,.36138,.27525,.80001,.27258,1.31589v4.10927h-1.52589v-3.87397c0-.43153-.11224-.76893-.33582-1.01311-.22358-.24329-.53179-.36582-.92551-.36582-.26634,0-.50328,.0586-.70994,.17492s-.36789,.28324-.48458,.50167-.17548,.48391-.17548,.79468Z"/>
      <path class="uuid-e9ff007b-ad46-4c0a-a0ab-29ac9f359391" d="M296.64021,179.85575c-.41064,0-.77942-.0737-1.10634-.22109-.3278-.14651-.58613-.36493-.77586-.65351s-.28416-.64374-.28416-1.06727c0-.36405,.06681-.66505,.2022-.90301,.13451-.23796,.3189-.42886,.55228-.57182,.23249-.14295,.49616-.25128,.79011-.32586,.29395-.0737,.59771-.12786,.91304-.1616,.37947-.03907,.68678-.07458,.92284-.10655,.23605-.03285,.40797-.08346,.51665-.15183,.10778-.06837,.16212-.17581,.16212-.32143v-.02486c0-.31699-.09442-.56205-.28237-.73519-.18884-.17403-.45964-.26105-.81416-.26105-.37323,0-.66897,.08169-.88721,.24418-.21735,.16249-.36432,.35428-.44004,.57537l-1.42523-.20156c.11224-.39246,.29841-.72099,.55673-.98559s.57455-.46349,.94867-.59668c.37323-.13319,.78655-.19978,1.23906-.19978,.31177,0,.62265,.0364,.93174,.10921s.59147,.19268,.84712,.35961,.46142,.39246,.6173,.67837c.15678,.28591,.23427,.64285,.23427,1.07171v4.31971h-1.4671v-.88703h-.05077c-.09264,.17936-.22269,.34717-.38927,.50256-.16746,.15539-.3768,.28058-.62888,.37381-.2512,.09412-.54515,.14118-.88275,.14118Zm.39639-1.11788c.30642,0,.57187-.06127,.79635-.18291,.22536-.12164,.39906-.28324,.5211-.48569,.12204-.20156,.1835-.42087,.1835-.65972v-.76006c-.0481,.03907-.12916,.07547-.24229,.10921-.11402,.03374-.2414,.06304-.38214,.0879-.14074,.02575-.2797,.04795-.41688,.06748-.13807,.01953-.25743,.0364-.35898,.05061-.22715,.03019-.43113,.0808-.61107,.15095s-.32157,.16782-.42579,.29212c-.10333,.12431-.15588,.28502-.15588,.48125,0,.27969,.10244,.4919,.30821,.63397,.20488,.14295,.46587,.21488,.78388,.21488Z"/>
      <path class="uuid-e9ff007b-ad46-4c0a-a0ab-29ac9f359391" d="M301.59734,179.72522v-6.45425h1.45908v1.09658h.07572c.13451-.36937,.35809-.65883,.66986-.86749,.31266-.20866,.685-.31343,1.11702-.31343,.43915,0,.80882,.10566,1.11168,.31699,.30197,.21221,.51486,.4999,.63779,.86394h.0677c.14341-.35872,.3857-.64463,.72776-.8595,.34116-.21399,.74646-.32143,1.2159-.32143,.59592,0,1.08228,.18824,1.45819,.56294,.3768,.37559,.56564,.92343,.56564,1.64353v4.33214h-1.53034v-4.09684c0-.40045-.10689-.69435-.32068-.88081-.21378-.18557-.47478-.27881-.78388-.27881-.36878,0-.65561,.11365-.86226,.34185s-.30999,.52476-.30999,.8888v4.02581h-1.49649v-4.15988c0-.33386-.10066-.59934-.30108-.79824-.20131-.19889-.4632-.29834-.78655-.29834-.21913,0-.41866,.05505-.5986,.16604-.17994,.1101-.32335,.26549-.43024,.46616-.10689,.19978-.16034,.4333-.16034,.69968v3.92458h-1.52589Z"/>
      <path class="uuid-e9ff007b-ad46-4c0a-a0ab-29ac9f359391" d="M315.121,179.85131c-.64848,0-1.20877-.13496-1.67999-.40578-.47033-.26993-.83198-.65351-1.08496-1.15074s-.37947-1.08414-.37947-1.75896c0-.66416,.12738-1.24752,.38125-1.75008,.25476-.50256,.61107-.89502,1.06892-1.17649s.99588-.42265,1.61407-.42265c.39906,0,.77675,.06393,1.13217,.19179,.35542,.12697,.67075,.32409,.94422,.58958,.27436,.26637,.48992,.60467,.64759,1.01489,.15678,.4111,.23605,.89857,.23605,1.46506v.46616h-5.30809v-1.02554h3.84545c-.00356-.29124-.06681-.5514-.18973-.77959-.12382-.22819-.29663-.40755-.51665-.53985-.22091-.13141-.47745-.19712-.76962-.19712-.31177,0-.58613,.07458-.82218,.22464s-.41955,.34629-.5496,.58869c-.13094,.24151-.19775,.507-.20042,.79557v.89502c0,.37559,.06859,.69701,.20666,.96428,.13718,.26815,.32958,.47237,.57722,.61355,.24763,.14207,.53713,.21221,.8685,.21221,.2218,0,.42312-.03108,.60305-.09412s.33582-.15627,.46765-.27969,.2316-.27614,.2993-.45816l1.42523,.15982c-.08997,.37559-.261,.70234-.51219,.98115-.25209,.27881-.57276,.49457-.96381,.64729-.39016,.15272-.83732,.22908-1.34061,.22908Z"/>
    </g>
    <g>
      <rect class="uuid-b782d8be-d7d6-482b-8c8e-25023ba29641" x="9.23627" y="269.34727" width="188.3964" height="112.64323" rx="6.44356" ry="6.44356"/>
      <rect class="uuid-f0271f5f-780b-45d6-b28f-580b59c76bb4" x="9.4412" y="308.25819" width="187.98654" height="19.47321"/>
      <rect class="uuid-52f0fa84-7961-4bfe-a009-aa073bab5316" x="124.57714" y="280.84069" width="49.72753" height="18.73335" rx="2.36981" ry="2.36981"/>
      <g>
        <path class="uuid-adec0055-0785-4576-bcc0-82be520d0306" d="M33.3252,293.87424v-7.69734h2.95646c.55762,0,1.0226,.08702,1.39316,.26105s.64848,.41199,.83287,.71211c.18528,.301,.27703,.64196,.27703,1.02288,0,.31255-.05968,.5807-.18083,.80179-.12025,.22198-.28237,.40223-.48636,.53985-.2031,.13763-.43113,.23619-.68233,.29656v.07547c.27436,.01509,.53713,.09856,.79011,.2495,.25209,.15183,.45964,.36582,.61998,.64107,.16123,.27525,.2414,.60911,.2414,.99979,0,.39867-.09709,.7565-.29039,1.07349s-.48547,.56649-.87474,.7494-.88008,.27437-1.47066,.27437h-3.12571Zm1.3994-4.42359h1.38336c.2414,0,.45875-.0444,.65204-.13408,.19419-.08879,.34651-.21488,.45875-.37914,.11135-.16426,.16746-.35872,.16746-.58425,0-.29834-.10511-.54429-.31444-.73697-.21022-.19268-.5211-.28946-.93353-.28946h-1.41365v2.12389Zm0,3.25865h1.50362c.50774,0,.87474-.09767,1.09921-.29124,.22536-.19445,.3376-.44396,.3376-.75029,0-.22819-.05612-.43419-.16925-.61799-.11313-.18469-.27436-.32942-.4828-.43597s-.45786-.15982-.74646-.15982h-1.54192v2.2553Z"/>
        <path class="uuid-adec0055-0785-4576-bcc0-82be520d0306" d="M42.77003,293.98701c-.56564,0-1.05556-.12431-1.46977-.37204-.4151-.24773-.73667-.5949-.96381-1.04152-.22715-.44573-.34116-.96694-.34116-1.56362,0-.59579,.11402-1.11877,.34116-1.56717s.54871-.79646,.96381-1.04419c.41421-.24862,.90413-.37292,1.46977-.37292s1.05645,.12431,1.47066,.37292c.4151,.24773,.73578,.59579,.96381,1.04419,.22715,.4484,.34116,.97138,.34116,1.56717,0,.59668-.11402,1.11788-.34116,1.56362-.22804,.44662-.54871,.7938-.96381,1.04152-.41421,.24773-.90502,.37204-1.47066,.37204Zm.00802-1.09036c.30642,0,.56297-.08435,.76873-.25306,.20666-.16959,.36076-.3969,.46231-.68281,.10155-.28502,.15232-.60378,.15232-.95451,0-.35339-.05077-.67304-.15232-.95984s-.25565-.51588-.46231-.68636c-.20577-.17048-.46231-.25572-.76873-.25572-.31444,0-.57544,.08524-.7821,.25572-.20755,.17048-.36254,.39956-.46409,.68636s-.15321,.60645-.15321,.95984c0,.35073,.05166,.66949,.15321,.95451,.10155,.28591,.25654,.51321,.46409,.68281,.20666,.1687,.46765,.25306,.7821,.25306Z"/>
        <path class="uuid-adec0055-0785-4576-bcc0-82be520d0306" d="M49.59154,288.10102v1.05218h-3.3297v-1.05218h3.3297Zm-2.50752-1.38337h1.36466v5.41983c0,.18291,.0285,.3232,.08551,.4191,.05612,.09678,.13094,.16249,.22447,.19801,.09264,.03463,.19597,.05239,.3091,.05239,.08551,0,.1639-.00622,.23516-.01865,.07215-.01243,.12649-.02397,.1639-.03374l.23071,1.06372c-.07304,.02486-.17726,.05239-.31177,.08258-.13451,.0293-.29841,.04706-.4917,.05239-.34206,.00977-.65026-.04173-.92373-.15627-.27436-.11365-.49081-.29124-.65026-.53186-.16034-.24062-.23873-.54074-.23605-.90212v-5.64536Z"/>
        <path class="uuid-adec0055-0785-4576-bcc0-82be520d0306" d="M55.22477,289.62735l-1.2444,.13496c-.03474-.1252-.0962-.24329-.18261-.35339s-.2031-.19889-.34918-.26637c-.1452-.06837-.32424-.10211-.53535-.10211-.28416,0-.52199,.06215-.7144,.18469s-.28683,.28147-.28416,.47681c-.00267,.16782,.05968,.30455,.18617,.41022,.12738,.10477,.3376,.19179,.63156,.25927l.98786,.21044c.54782,.11809,.9558,.30455,1.22392,.56027,.26723,.25483,.40263,.58958,.4053,1.00334-.00267,.36316-.10867,.68369-.3189,.95984-.20933,.27703-.50061,.49368-.87295,.64907-.37145,.1545-.79902,.23263-1.28182,.23263-.70905,0-1.27914-.14828-1.71206-.44573-.43202-.29656-.68946-.71033-.77319-1.24219l1.3317-.12786c.05968,.26105,.18795,.45728,.38481,.59046,.19597,.13319,.45073,.19889,.76517,.19889,.32424,0,.58524-.06571,.7821-.19889,.19775-.13319,.29574-.29656,.29574-.4919,0-.16604-.06324-.30278-.18973-.41022-.12738-.10744-.32424-.19001-.59058-.24773l-.98786-.20688c-.55584-.11543-.96648-.30988-1.23282-.58425s-.39817-.62243-.3955-1.0433c-.00267-.35605,.09442-.66416,.29217-.9261,.19686-.26193,.47211-.46527,.82574-.60911,.35274-.14384,.76072-.21665,1.22303-.21665,.67877,0,1.21323,.14473,1.60428,.43241,.39105,.28857,.63334,.67837,.72598,1.16938Z"/>
        <path class="uuid-adec0055-0785-4576-bcc0-82be520d0306" d="M59.17177,293.87424v-7.69734h2.95646c.55762,0,1.0226,.08702,1.39316,.26105s.64848,.41199,.83287,.71211c.18528,.301,.27703,.64196,.27703,1.02288,0,.31255-.05968,.5807-.18083,.80179-.12025,.22198-.28237,.40223-.48636,.53985-.2031,.13763-.43113,.23619-.68233,.29656v.07547c.27436,.01509,.53713,.09856,.79011,.2495,.25209,.15183,.45964,.36582,.61998,.64107,.16123,.27525,.2414,.60911,.2414,.99979,0,.39867-.09709,.7565-.29039,1.07349s-.48547,.56649-.87474,.7494-.88008,.27437-1.47066,.27437h-3.12571Zm1.3994-4.42359h1.38336c.2414,0,.45875-.0444,.65204-.13408,.19419-.08879,.34651-.21488,.45875-.37914,.11135-.16426,.16746-.35872,.16746-.58425,0-.29834-.10511-.54429-.31444-.73697-.21022-.19268-.5211-.28946-.93353-.28946h-1.41365v2.12389Zm0,3.25865h1.50362c.50774,0,.87474-.09767,1.09921-.29124,.22536-.19445,.3376-.44396,.3376-.75029,0-.22819-.05612-.43419-.16925-.61799-.11313-.18469-.27436-.32942-.4828-.43597s-.45786-.15982-.74646-.15982h-1.54192v2.2553Z"/>
        <path class="uuid-adec0055-0785-4576-bcc0-82be520d0306" d="M67.45682,286.17691v7.69734h-1.36555v-7.69734h1.36555Z"/>
        <path class="uuid-adec0055-0785-4576-bcc0-82be520d0306" d="M71.38511,293.98701c-.56564,0-1.05556-.12431-1.46977-.37204-.4151-.24773-.73667-.5949-.96381-1.04152-.22715-.44573-.34116-.96694-.34116-1.56362,0-.59579,.11402-1.11877,.34116-1.56717s.54871-.79646,.96381-1.04419c.41421-.24862,.90413-.37292,1.46977-.37292s1.05645,.12431,1.47066,.37292c.4151,.24773,.73578,.59579,.96381,1.04419,.22715,.4484,.34116,.97138,.34116,1.56717,0,.59668-.11402,1.11788-.34116,1.56362-.22804,.44662-.54871,.7938-.96381,1.04152-.41421,.24773-.90502,.37204-1.47066,.37204Zm.00802-1.09036c.30642,0,.56297-.08435,.76873-.25306,.20666-.16959,.36076-.3969,.46231-.68281,.10155-.28502,.15232-.60378,.15232-.95451,0-.35339-.05077-.67304-.15232-.95984s-.25565-.51588-.46231-.68636c-.20577-.17048-.46231-.25572-.76873-.25572-.31444,0-.57544,.08524-.7821,.25572-.20755,.17048-.36254,.39956-.46409,.68636s-.15321,.60645-.15321,.95984c0,.35073,.05166,.66949,.15321,.95451,.10155,.28591,.25654,.51321,.46409,.68281,.20666,.1687,.46765,.25306,.7821,.25306Z"/>
        <path class="uuid-adec0055-0785-4576-bcc0-82be520d0306" d="M77.83962,293.98701c-.57811,0-1.07338-.12608-1.48669-.38003-.41421-.25306-.73221-.60289-.95401-1.0504-.22269-.44662-.33404-.9625-.33404-1.54675,0-.58602,.11313-1.10368,.33938-1.55385,.22626-.44928,.54604-.8009,.95936-1.05218,.41332-.25217,.90324-.37825,1.46888-.37825,.47033,0,.88632,.08613,1.24975,.2575,.36343,.17226,.65293,.41377,.86939,.72543,.21646,.31255,.33938,.67659,.36967,1.09214h-1.30498c-.05256-.27792-.17815-.51055-.37501-.69701-.19775-.18646-.46053-.28058-.79011-.28058-.27881,0-.52377,.07458-.73488,.22375s-.37501,.36316-.4926,.64107c-.11669,.27792-.17548,.61177-.17548,.99979,0,.39335,.0579,.73075,.1737,1.01311,.1158,.28147,.27881,.49812,.48814,.64995,.21022,.15183,.45696,.22731,.74112,.22731,.20131,0,.38125-.03818,.54159-.11454,.15945-.07636,.29306-.18735,.40085-.33208,.10867-.14562,.18261-.32231,.22269-.53009h1.30498c-.03296,.40844-.15321,.76982-.36254,1.08414-.20844,.31432-.4926,.56027-.85158,.73697-.35987,.1767-.7821,.2646-1.26756,.2646Z"/>
        <path class="uuid-adec0055-0785-4576-bcc0-82be520d0306" d="M81.44457,293.87424v-7.69734h1.36555v7.69734h-1.36555Zm1.2444-1.81135l-.00356-1.64264h.21913l2.08084-2.31923h1.59537l-2.56096,2.84133h-.28237l-1.04844,1.12055Zm2.39083,1.81135l-1.88576-2.62734,.92016-.95806,2.59837,3.5854h-1.63278Z"/>
        <path class="uuid-adec0055-0785-4576-bcc0-82be520d0306" d="M88.17166,287.28147c-.21913,0-.4053-.07192-.56029-.21576-.1541-.14384-.2316-.31787-.2316-.52032,0-.206,.0775-.38092,.23338-.52476s.34206-.21576,.55851-.21576c.21557,0,.40174,.07192,.55584,.21576,.15499,.14384,.2316,.31876,.2316,.52476,0,.20244-.07661,.37648-.2316,.52032-.1541,.14384-.34027,.21576-.55584,.21576Zm-.68678,6.59277v-5.77322h1.36555v5.77322h-1.36555Z"/>
        <path class="uuid-adec0055-0785-4576-bcc0-82be520d0306" d="M91.61805,290.49129v3.38296h-1.36555v-5.77322h1.30498v.98115h.0677c.13362-.3232,.34651-.57981,.63957-.77071,.29217-.19001,.65472-.28591,1.08763-.28591,.39996,0,.74825,.08524,1.04665,.25572,.29752,.17048,.52912,.41732,.69302,.74052,.16479,.3232,.24585,.71566,.24318,1.17649v3.67597h-1.36466v-3.46553c0-.38536-.09977-.68725-.2993-.90567-.20042-.21754-.47656-.32675-.82842-.32675-.23873,0-.44984,.0515-.63512,.15539-.18439,.10477-.32958,.25394-.4338,.44928s-.15588,.43241-.15588,.71033Z"/>
        <path class="uuid-adec0055-0785-4576-bcc0-82be520d0306" d="M99.2457,296.13665c-.48992,0-.91126-.06482-1.26311-.19534s-.63512-.30455-.8489-.52209c-.21289-.21843-.36165-.45728-.44449-.71832l1.22926-.29656c.05523,.103,.1354,.20866,.2414,.31787,.10511,.10833,.24852,.19978,.42757,.27437,.17994,.0737,.40708,.1101,.68055,.1101,.38748,0,.70816-.09234,.96203-.27792s.38036-.4848,.38036-.89857v-1.09302h-.0677c-.07037,.14029-.17281,.28413-.30732,.43153-.13451,.14828-.31177,.27259-.53179,.37292-.22002,.09945-.49527,.15006-.82752,.15006-.44449,0-.84801-.10477-1.20877-.31432-.36076-.20866-.6467-.52209-.85959-.93941-.212-.41732-.318-.9403-.318-1.56895,0-.63397,.106-1.16938,.318-1.60713,.21289-.43685,.49972-.76893,.86226-.99535,.36165-.22731,.76517-.34096,1.20966-.34096,.33938,0,.61908,.05771,.8391,.17137,.22002,.11454,.3955,.25039,.52644,.40933,.13005,.15982,.22982,.30899,.29752,.44928h.07572v-.95451h1.34595v5.86734c0,.48303-.11847,.88614-.35453,1.20845-.23605,.32143-.5594,.56205-.96916,.72099-.40975,.15982-.87474,.23885-1.39494,.23885Zm.01158-3.41226c.28861,0,.53535-.07015,.73845-.21044,.20399-.14029,.35809-.34274,.46409-.60556s.15856-.57892,.15856-.94741c0-.36316-.05256-.68103-.15678-.95451-.10422-.27259-.25743-.4848-.45964-.63664-.2031-.15183-.45073-.22731-.74468-.22731-.30464,0-.55851,.07902-.76161,.23619-.20399,.15805-.3572,.3747-.46053,.64907s-.1541,.58514-.1541,.9332c0,.35339,.05166,.66238,.15588,.92698s.25921,.46971,.46409,.61621,.45696,.2202,.75626,.2202Z"/>
      </g>
      <g>
        <path class="uuid-af1aa831-6f7f-4f1b-8dbf-fa1e4f79e1fc" d="M134.17099,293.27135h-1.38426l2.10845-6.08843h1.66485l2.10489,6.08843h-1.38336l-1.53034-4.69707h-.04721l-1.53301,4.69707Zm-.0864-2.39293h3.26823v1.00423h-3.26823v-1.00423Z"/>
        <path class="uuid-af1aa831-6f7f-4f1b-8dbf-fa1e4f79e1fc" d="M140.8482,293.34593c-.34829,0-.66273-.08968-.94422-.26904-.28059-.17936-.50328-.44396-.66719-.7938-.16479-.34984-.24674-.77959-.24674-1.28925,0-.52298,.08462-.95806,.25387-1.30612s.39372-.60822,.6752-.78225c.28148-.17314,.59058-.25927,.9264-.25927,.25654,0,.47033,.04262,.64224,.12875s.31177,.19357,.41777,.32143,.18706,.25306,.24318,.37559h.0383v-2.28904h1.26756v6.08843h-1.25242v-.73164h-.05345c-.05968,.12697-.14341,.25217-.25209,.37648-.10867,.12342-.24852,.22642-.42044,.30722-.17192,.08169-.38125,.12253-.62799,.12253Zm.40263-1.00778c.20488,0,.37858-.05594,.52021-.16782,.14252-.11188,.25209-.26904,.32869-.47148,.07572-.20244,.11402-.43863,.11402-.71033s-.03741-.50789-.11313-.70767-.18439-.35517-.3278-.46349c-.14341-.10921-.31711-.16338-.52199-.16338-.20844,0-.38481,.05594-.52823,.1687-.14252,.11365-.2512,.26993-.32424,.46971-.07393,.20067-.11046,.43241-.11046,.69613,0,.26549,.03741,.4999,.11135,.70323,.07482,.20244,.1835,.36138,.32513,.47503,.14252,.11454,.318,.17137,.52644,.17137Z"/>
        <path class="uuid-af1aa831-6f7f-4f1b-8dbf-fa1e4f79e1fc" d="M146.18302,293.34593c-.34829,0-.66273-.08968-.94422-.26904-.28059-.17936-.50328-.44396-.66719-.7938-.16479-.34984-.24674-.77959-.24674-1.28925,0-.52298,.08462-.95806,.25387-1.30612s.39372-.60822,.6752-.78225c.28148-.17314,.59058-.25927,.9264-.25927,.25654,0,.47033,.04262,.64224,.12875s.31177,.19357,.41777,.32143,.18706,.25306,.24318,.37559h.0383v-2.28904h1.26756v6.08843h-1.25242v-.73164h-.05345c-.05968,.12697-.14341,.25217-.25209,.37648-.10867,.12342-.24852,.22642-.42044,.30722-.17192,.08169-.38125,.12253-.62799,.12253Zm.40263-1.00778c.20488,0,.37858-.05594,.52021-.16782,.14252-.11188,.25209-.26904,.32869-.47148,.07572-.20244,.11402-.43863,.11402-.71033s-.03741-.50789-.11313-.70767-.18439-.35517-.3278-.46349c-.14341-.10921-.31711-.16338-.52199-.16338-.20844,0-.38481,.05594-.52823,.1687-.14252,.11365-.2512,.26993-.32424,.46971-.07393,.20067-.11046,.43241-.11046,.69613,0,.26549,.03741,.4999,.11135,.70323,.07482,.20244,.1835,.36138,.32513,.47503,.14252,.11454,.318,.17137,.52644,.17137Z"/>
        <path class="uuid-af1aa831-6f7f-4f1b-8dbf-fa1e4f79e1fc" d="M151.80199,293.27135v-6.08843h2.44516c.44984,0,.82396,.06659,1.12415,.19978,.30019,.1323,.52644,.3161,.67698,.5514,.15143,.23441,.22715,.50434,.22715,.80978,0,.23796-.0481,.44662-.14341,.62598s-.22626,.32586-.39194,.43952c-.16568,.11454-.35542,.19534-.56831,.2424v.05949c.23249,.00977,.45073,.07547,.65472,.19623s.36967,.28946,.49616,.507c.12738,.21665,.19152,.47503,.19152,.77426,0,.3232-.08017,.61089-.24051,.86394-.15945,.25217-.39639,.45195-.70816,.59845s-.69658,.2202-1.15444,.2202h-2.60906Zm1.29162-3.54012h.95669c.17726,0,.33493-.03196,.473-.09412s.24763-.15095,.3278-.26637c.08106-.11454,.12114-.25217,.12114-.41288,0-.2202-.07839-.3969-.23427-.53186s-.3768-.20244-.66362-.20244h-.98074v1.50768Zm0,2.48794h1.052c.35987,0,.62265-.06926,.78744-.20688,.16568-.13763,.24763-.32143,.24763-.5514,0-.1687-.04098-.31699-.12204-.44573-.08195-.12875-.19775-.22997-.3474-.30367-.15054-.07281-.32869-.10921-.53535-.10921h-1.08228v1.61689Z"/>
        <path class="uuid-af1aa831-6f7f-4f1b-8dbf-fa1e4f79e1fc" d="M159.39758,293.36014c-.4632,0-.86405-.09856-1.20076-.29568s-.59682-.47237-.77942-.82576c-.1835-.35428-.27436-.76449-.27436-1.23243,0-.47148,.09086-.88436,.27436-1.23864,.18261-.35339,.44271-.62864,.77942-.82576s.73756-.29568,1.20076-.29568,.86316,.09856,1.19987,.29568c.3376,.19712,.59682,.47237,.78031,.82576,.18261,.35428,.27436,.76716,.27436,1.23864,0,.46793-.09175,.87815-.27436,1.23243-.1835,.35339-.44271,.62864-.78031,.82576-.33671,.19712-.73667,.29568-1.19987,.29568Zm.00534-.98026c.21111,0,.38659-.06038,.52823-.18025,.14074-.11987,.24763-.28413,.32068-.4919,.07215-.20777,.10867-.44485,.10867-.71033s-.03652-.50256-.10867-.71033c-.07304-.20866-.17994-.37292-.32068-.49368-.14163-.12076-.31711-.18113-.52823-.18113-.21289,0-.39105,.06038-.53535,.18113-.14341,.12076-.25209,.28502-.32513,.49368-.07215,.20777-.10867,.44485-.10867,.71033s.03652,.50256,.10867,.71033c.07304,.20777,.18172,.37204,.32513,.4919,.1443,.11987,.32246,.18025,.53535,.18025Z"/>
        <path class="uuid-af1aa831-6f7f-4f1b-8dbf-fa1e4f79e1fc" d="M164.91768,288.70569v.95096h-2.75782v-.95096h2.75782Zm-2.13161-1.0948h1.27024v4.25755c0,.11632,.01782,.20777,.05345,.2717,.03563,.06482,.0864,.10921,.15054,.13496,.06503,.02575,.13985,.03907,.22536,.03907,.05968,0,.11936-.00533,.17904-.01598,.05968-.01154,.10511-.01953,.13718-.02575l.19953,.94208c-.06324,.02042-.15321,.04351-.26812,.07015-.1158,.02664-.25565,.04351-.42044,.04884-.30642,.01243-.57455-.02841-.80347-.12164-.22982-.09323-.40886-.23796-.53535-.43419-.12738-.19623-.19062-.44396-.18795-.74318v-4.42359Z"/>
      </g>
      <g>
        <path class="uuid-c8a00367-15bf-4e12-81ed-483eb3ee5b12" d="M38.52195,314.74113v6.45248h-1.04309l-3.04999-4.39518h-.05434v4.39518h-1.17225v-6.45248h1.04933l3.04732,4.39784h.05701v-4.39784h1.16602Z"/>
        <path class="uuid-c8a00367-15bf-4e12-81ed-483eb3ee5b12" d="M41.14171,321.29128c-.30732,0-.58345-.05505-.82931-.16515s-.43915-.27348-.58167-.49013-.21289-.48303-.21289-.80001c0-.27348,.04988-.49901,.15143-.67748,.10066-.17847,.23873-.32143,.41421-.42886,.17459-.10744,.37234-.18824,.59236-.24418s.44806-.09589,.68411-.12164c.28505-.0293,.51576-.05594,.69213-.07991,.17726-.02397,.30642-.06215,.38748-.11365s.12204-.13141,.12204-.24062v-.01953c0-.23707-.07126-.42087-.212-.5514-.14163-.12964-.34473-.19534-.61018-.19534-.28059,0-.50239,.06127-.6654,.18291-.16301,.12253-.27347,.26637-.33048,.43153l-1.06803-.15095c.08462-.2939,.22358-.53985,.41688-.73875,.19419-.19889,.43113-.34806,.71172-.44751,.2797-.09945,.58969-.14917,.92907-.14917,.23427,0,.46676,.02664,.69836,.08169,.2316,.05416,.4436,.14384,.63512,.26904,.19241,.1252,.34651,.29479,.4632,.50878,.11758,.21488,.17548,.48214,.17548,.80356v3.23911h-1.1001v-.66505h-.03741c-.06948,.13496-.16746,.26016-.29217,.37648-.1256,.1172-.28237,.21044-.47122,.28058s-.40975,.10566-.66273,.10566Zm.29752-.83819c.22982,0,.42846-.04528,.59771-.13674,.16836-.09146,.29841-.2131,.39016-.36405s.13718-.3161,.13718-.49457v-.57093c-.03563,.03019-.0962,.05683-.18172,.08258-.08551,.02486-.18083,.04706-.28594,.06571-.10511,.01953-.20933,.0364-.31266,.05061-.10333,.01509-.1933,.02753-.26901,.03818-.17014,.02309-.32335,.06038-.45786,.11277-.1354,.05327-.2414,.12608-.31979,.21932-.0775,.09323-.11669,.21399-.11669,.36049,0,.21044,.07661,.36848,.23071,.47592s.35007,.16071,.58791,.16071Z"/>
        <path class="uuid-c8a00367-15bf-4e12-81ed-483eb3ee5b12" d="M44.85889,321.19361v-4.83914h1.09386v.82221h.05701c.10066-.27792,.26812-.49457,.50239-.65084,.23338-.15627,.51308-.23441,.83732-.23441,.32869,0,.60661,.07902,.83287,.23707,.22715,.15894,.38659,.3747,.47923,.64818h.05077c.10689-.26904,.28861-.48391,.54515-.64463,.25565-.16071,.5594-.24062,.91126-.24062,.44717,0,.81149,.14029,1.09386,.42176s.42401,.69257,.42401,1.23154v3.24888h-1.14731v-3.07219c0-.30012-.08017-.52032-.24051-.65972s-.35631-.20955-.58791-.20955c-.27614,0-.4917,.08524-.6467,.25661s-.23249,.39335-.23249,.66682v3.01802h-1.12148v-3.11925c0-.25039-.07572-.44928-.22626-.59845s-.3474-.22375-.58969-.22375c-.1639,0-.31355,.04173-.44895,.12431-.13451,.08258-.24229,.19978-.32246,.34984s-.11936,.32498-.11936,.52476v2.94255h-1.14464Z"/>
        <path class="uuid-c8a00367-15bf-4e12-81ed-483eb3ee5b12" d="M54.99941,321.28773c-.48636,0-.9068-.10122-1.25955-.30367s-.62443-.49013-.81416-.86305-.28416-.81244-.28416-1.31855c0-.49812,.09531-.93586,.28594-1.31234,.19062-.37736,.45786-.67126,.80169-.88259,.34295-.21132,.74646-.3161,1.21056-.3161,.29841,0,.58167,.04706,.84801,.14295,.26723,.09589,.50328,.24329,.70816,.44307,.20577,.19889,.367,.45284,.48547,.76094,.11758,.30722,.17726,.67304,.17726,1.09746v.34984h-3.97996v-.76893h2.88253c-.00178-.21843-.04899-.41288-.14163-.58425-.09353-.17137-.2218-.30633-.38748-.40489s-.35809-.14828-.57722-.14828c-.23338,0-.43915,.05683-.61641,.1687-.17637,.11277-.31444,.25927-.41243,.44129-.09798,.18113-.14787,.38092-.14965,.59668v.67126c0,.28147,.05166,.52298,.15499,.72276,.10244,.20067,.24763,.35428,.43291,.46083,.18528,.10566,.40263,.15894,.65115,.15894,.16657,0,.31711-.02397,.45162-.07103,.1354-.04706,.25209-.1172,.35096-.20955s.1737-.20688,.22447-.34362l1.06803,.11987c-.06681,.28147-.19508,.52653-.38392,.73608-.18795,.20866-.42935,.37026-.72241,.4848-.29217,.11454-.62799,.17137-1.00479,.17137Z"/>
      </g>
      <g>
        <path class="uuid-c8a00367-15bf-4e12-81ed-483eb3ee5b12" d="M142.24136,321.19361h-1.25153l2.27859-6.45248h1.44839l2.28215,6.45248h-1.25242l-1.72898-5.12948h-.04988l-1.72631,5.12948Zm.04098-2.52967h3.41432v.93853h-3.41432v-.93853Z"/>
        <path class="uuid-c8a00367-15bf-4e12-81ed-483eb3ee5b12" d="M149.76747,321.28773c-.48547,0-.90057-.10566-1.24708-.31787-.3474-.21221-.61374-.50522-.79991-.88081-.18617-.3747-.2797-.80711-.2797-1.29636,0-.4919,.09442-.9261,.28416-1.30257,.18973-.37736,.45786-.67126,.80436-.88259s.75715-.3161,1.23104-.3161c.39461,0,.74379,.07192,1.04844,.21576s.54693,.34629,.72865,.60733c.18083,.26193,.28416,.56738,.3091,.91544h-1.09297c-.04454-.23263-.14965-.42798-.31444-.58425-.16568-.15627-.38659-.23441-.66273-.23441-.23338,0-.43915,.06215-.61641,.18735s-.31444,.30367-.41243,.53719c-.09798,.23263-.14698,.51233-.14698,.83819,0,.32942,.04899,.61266,.1452,.84885,.09709,.23619,.23338,.41821,.40975,.54518,.17548,.12697,.38303,.1909,.62087,.1909,.16836,0,.31979-.03196,.4534-.09678,.13451-.06393,.24674-.15627,.33671-.27881,.09086-.12164,.15321-.26993,.18706-.44396h1.09297c-.02672,.34274-.12827,.64551-.30286,.90922-.17548,.26371-.41332,.46971-.7144,.6171-.30197,.14828-.65561,.22198-1.0618,.22198Z"/>
        <path class="uuid-c8a00367-15bf-4e12-81ed-483eb3ee5b12" d="M155.21364,316.35448v.8817h-2.79167v-.8817h2.79167Zm-2.10222-1.15962h1.14464v4.54346c0,.15272,.02316,.26993,.07037,.35073,.0481,.0808,.11046,.13585,.18884,.16604,.0775,.0293,.1639,.04351,.25832,.04351,.07215,0,.13807-.00533,.19775-.01598,.06057-.00977,.106-.01953,.13807-.02753l.19241,.89147c-.06146,.02042-.14787,.04351-.261,.06926-.11224,.02486-.25031,.03996-.41243,.0444-.28683,.00799-.54426-.03552-.77408-.13141-.22982-.09501-.41154-.24418-.54515-.44573-.13451-.20156-.19953-.45372-.19775-.75562v-4.73259Z"/>
        <path class="uuid-c8a00367-15bf-4e12-81ed-483eb3ee5b12" d="M156.74665,315.66723c-.1835,0-.34027-.06038-.46944-.18113-.13005-.12076-.19419-.26637-.19419-.43685,0-.17226,.06503-.31876,.19597-.43952,.13005-.12076,.28594-.18113,.46765-.18113,.18083,0,.33671,.06038,.46587,.18113,.13005,.12076,.19419,.26726,.19419,.43952,0,.17048-.06414,.3161-.19419,.43685-.12916,.12076-.28505,.18113-.46587,.18113Zm-.57544,5.52638v-4.83914h1.14464v4.83914h-1.14464Z"/>
        <path class="uuid-c8a00367-15bf-4e12-81ed-483eb3ee5b12" d="M160.60992,321.28773c-.47478,0-.88542-.10389-1.23282-.31166-.34829-.20777-.6173-.49901-.80793-.87282s-.28594-.81067-.28594-1.31056,.09531-.93764,.28594-1.31411c.19062-.37559,.45964-.66771,.80793-.87548,.3474-.20777,.75804-.31166,1.23282-.31166,.47389,0,.88453,.10389,1.23193,.31166,.34829,.20777,.6173,.4999,.80793,.87548,.19062,.37648,.28594,.81422,.28594,1.31411s-.09531,.93675-.28594,1.31056-.45964,.66505-.80793,.87282c-.3474,.20777-.75804,.31166-1.23193,.31166Zm.00624-.91366c.25654,0,.47211-.07015,.64492-.21221,.17192-.14207,.30108-.33208,.38659-.57182s.12827-.50611,.12827-.8009c0-.29568-.04276-.56383-.12827-.80445s-.21468-.43241-.38659-.57537c-.17281-.14295-.38838-.21399-.64492-.21399-.26367,0-.4828,.07103-.6565,.21399s-.30286,.33474-.38838,.57537-.12827,.50878-.12827,.80445c0,.29479,.04276,.56116,.12827,.8009s.21468,.42975,.38838,.57182,.39283,.21221,.6565,.21221Z"/>
        <path class="uuid-c8a00367-15bf-4e12-81ed-483eb3ee5b12" d="M165.04684,318.35761v2.836h-1.14464v-4.83914h1.09386v.82221h.05701c.11135-.2717,.29039-.48658,.53535-.6464,.24585-.15982,.5496-.23885,.91215-.23885,.33493,0,.6271,.07103,.87741,.21399,.24942,.14295,.4436,.34984,.58167,.62065,.13718,.27081,.20577,.59934,.2031,.98647v3.08107h-1.14375v-2.90526c0-.3232-.08373-.57626-.2512-.75917s-.39906-.27437-.69391-.27437c-.20042,0-.37769,.0444-.53268,.13141s-.27614,.21221-.36343,.37648c-.0873,.16338-.13094,.36227-.13094,.5949Z"/>
        <path class="uuid-c8a00367-15bf-4e12-81ed-483eb3ee5b12" d="M173.16709,317.63307l-1.04309,.11365c-.0294-.10477-.08106-.20333-.15321-.29656-.07304-.09234-.17014-.16693-.29217-.22375-.12293-.05594-.27258-.08435-.44895-.08435-.23873,0-.43826,.0515-.59949,.1545-.16123,.10211-.24051,.23619-.23873,.39956-.00178,.14118,.04988,.25572,.15678,.34362,.106,.0879,.28326,.16071,.52912,.21754l.82842,.1767c.45964,.09856,.80169,.25483,1.02617,.46882,.22358,.21488,.3376,.49457,.33938,.84174-.00178,.30455-.09086,.57271-.26723,.80445-.17548,.23263-.41955,.41377-.73132,.5434-.31177,.13052-.67075,.19534-1.07516,.19534-.59414,0-1.07249-.12431-1.43503-.37292s-.57811-.59579-.64759-1.04152l1.11524-.10655c.05077,.21843,.15856,.38269,.32246,.49457,.16479,.11099,.37858,.16693,.64224,.16693,.27168,0,.48992-.05594,.65561-.16693,.16568-.11188,.24852-.2495,.24852-.41288,0-.13851-.05345-.25306-.16034-.34362-.106-.09057-.27079-.15982-.49438-.20777l-.82842-.17314c-.46587-.09678-.80971-.26016-1.03329-.49013s-.33404-.52121-.33226-.8746c-.00178-.29834,.08017-.55672,.24496-.77693,.16568-.21932,.39639-.38891,.69213-.50966,.29663-.12076,.63868-.18113,1.02617-.18113,.5692,0,1.01726,.12076,1.34506,.36227s.53001,.56827,.6084,.97937Z"/>
      </g>
      <g>
        <path class="uuid-62717c55-3c69-4cf2-8d42-12430e847b2c" d="M33.28156,347.44038v-7.2516h4.66051v1.10101h-3.34306v1.96851h3.02327v1.10101h-3.02327v3.08107h-1.31745Z"/>
        <path class="uuid-62717c55-3c69-4cf2-8d42-12430e847b2c" d="M40.60546,347.55048c-.34562,0-.6565-.06215-.93174-.18646-.27614-.12342-.49438-.30722-.65382-.55051-.16034-.24329-.23962-.54252-.23962-.89946,0-.30633,.05612-.56027,.17014-.76094s.26901-.36138,.46498-.48214c.19686-.11987,.41866-.21132,.6663-.27437,.24763-.06215,.50418-.10744,.76962-.13585,.31979-.03285,.579-.06304,.77764-.09057,.19864-.02664,.34384-.06926,.43559-.12697,.09086-.0586,.13629-.14828,.13629-.2717v-.02131c0-.26637-.07928-.47326-.23784-.61888-.15856-.14651-.38748-.2202-.68589-.2202-.31444,0-.56386,.06837-.74736,.206-.1835,.13674-.30732,.29834-.37145,.4848l-1.20076-.16959c.09442-.33119,.2512-.60733,.46854-.83109,.21824-.22287,.48458-.39068,.79991-.50256,.31444-.11188,.66273-.16782,1.04398-.16782,.26278,0,.52466,.03019,.78566,.09146,.2601,.06215,.49794,.16249,.71351,.30278,.21557,.14118,.38927,.33119,.52021,.57182,.13183,.24151,.19775,.54252,.19775,.90301v3.64045h-1.23639v-.74674h-.04276c-.07839,.15095-.18795,.29212-.32869,.42265-.14074,.13141-.31711,.23619-.52912,.31521s-.45964,.11898-.74468,.11898Zm.33404-.94208c.25832,0,.48191-.0515,.67164-.1545,.18973-.10211,.33582-.23885,.43915-.40844,.10244-.17048,.1541-.35517,.1541-.55583v-.64107c-.04008,.03285-.10867,.06393-.20399,.09146-.0962,.02841-.2031,.05327-.32157,.07458s-.23605,.03996-.35185,.05683-.21646,.03108-.30197,.04262c-.19152,.02575-.36343,.06837-.51486,.12697-.15143,.05949-.27168,.14118-.35898,.24684-.0873,.10477-.13183,.23974-.13183,.40489,0,.23619,.0864,.41466,.2601,.53452,.17281,.12076,.39283,.18113,.66006,.18113Z"/>
        <path class="uuid-62717c55-3c69-4cf2-8d42-12430e847b2c" d="M47.50893,342.00101v.9918h-3.13729v-.9918h3.13729Zm-2.36232-1.30257h1.28538v5.1064c0,.17226,.02672,.30367,.08017,.39423,.05345,.09146,.12382,.15272,.21111,.18646,.08819,.03285,.18528,.04884,.29128,.04884,.08106,0,.15499-.00533,.2218-.01776,.0677-.01154,.11936-.0222,.15499-.03108l.21646,1.00157c-.06859,.02397-.16657,.04972-.29306,.07814s-.28148,.0444-.4632,.04972c-.32246,.00888-.61285-.03996-.87028-.14739-.25832-.10744-.46231-.27437-.61285-.50078s-.22447-.50966-.2218-.84973v-5.31861Z"/>
        <path class="uuid-62717c55-3c69-4cf2-8d42-12430e847b2c" d="M48.75511,347.44038v-7.2516h2.78455c.52555,0,.96381,.08169,1.31299,.24595s.61107,.38713,.78477,.67038c.17459,.28324,.261,.60467,.261,.96339,0,.29568-.05701,.54696-.17014,.7565-.11402,.20866-.26634,.37825-.45875,.50789-.19152,.12964-.40619,.22287-.64224,.27969v.07103c.25743,.01421,.50596,.09234,.74379,.2353s.43291,.34362,.58434,.60378c.15143,.25927,.22715,.57359,.22715,.94208,0,.3747-.09086,.71211-.27347,1.01045-.18261,.29923-.45696,.53452-.82396,.70678s-.82931,.25838-1.38515,.25838h-2.94488Zm1.31745-4.16787h1.30409c.22715,0,.43202-.04173,.61463-.1252,.18172-.08435,.32602-.20333,.43113-.35783s.15856-.3383,.15856-.55051c0-.28147-.09888-.51233-.29663-.69435s-.49081-.27259-.87919-.27259h-1.33259v2.00047Zm0,3.07041h1.41721c.47834,0,.82396-.09146,1.03596-.27437s.318-.4191,.318-.70678c0-.21488-.05345-.40933-.16034-.58247-.106-.17314-.25832-.31077-.45429-.4111-.19686-.10033-.43113-.15006-.70371-.15006h-1.45284v2.12478Z"/>
        <path class="uuid-62717c55-3c69-4cf2-8d42-12430e847b2c" d="M57.6539,347.54693c-.53268,0-.99499-.1172-1.38604-.35073-.39016-.23352-.69302-.56116-.90769-.98115-.21378-.41998-.32068-.911-.32068-1.47305s.10689-1.05396,.32068-1.4766c.21468-.42265,.51754-.75029,.90769-.9847,.39105-.23352,.85336-.34984,1.38604-.34984s.9941,.11632,1.38515,.34984c.39105,.23441,.69302,.56205,.90769,.9847s.32157,.91455,.32157,1.4766-.10689,1.05307-.32157,1.47305-.51665,.74762-.90769,.98115-.85247,.35073-1.38515,.35073Zm.00713-1.02732c.28861,0,.53001-.07991,.7242-.23885,.19419-.15982,.33938-.37381,.43559-.64285,.09531-.26904,.14341-.56915,.14341-.89946,0-.33297-.0481-.63397-.14341-.90479-.0962-.26993-.2414-.48569-.43559-.6464-.19419-.15982-.43559-.24062-.7242-.24062-.29663,0-.54159,.0808-.73756,.24062-.19508,.16071-.34116,.37648-.43648,.6464-.0962,.27081-.1443,.57182-.1443,.90479,0,.3303,.0481,.63042,.1443,.89946,.09531,.26904,.2414,.48303,.43648,.64285,.19597,.15894,.44093,.23885,.73756,.23885Z"/>
        <path class="uuid-62717c55-3c69-4cf2-8d42-12430e847b2c" d="M64.07991,342.00101v.9918h-3.13729v-.9918h3.13729Zm-2.36232-1.30257h1.28538v5.1064c0,.17226,.02672,.30367,.08017,.39423,.05345,.09146,.12382,.15272,.21111,.18646,.08819,.03285,.18528,.04884,.29128,.04884,.08106,0,.15499-.00533,.2218-.01776,.0677-.01154,.11936-.0222,.15499-.03108l.21646,1.00157c-.06859,.02397-.16657,.04972-.29306,.07814s-.28148,.0444-.4632,.04972c-.32246,.00888-.61285-.03996-.87028-.14739-.25832-.10744-.46231-.27437-.61285-.50078s-.22447-.50966-.2218-.84973v-5.31861Z"/>
      </g>
      <g>
        <path class="uuid-62717c55-3c69-4cf2-8d42-12430e847b2c" d="M145.72516,347.44038h-2.46476v-7.2516h2.51464c.72241,0,1.34328,.14384,1.86349,.4333,.51932,.28946,.91927,.70412,1.19898,1.24486,.27881,.54074,.41866,1.18714,.41866,1.94009,0,.75562-.13985,1.40468-.42044,1.94809-.28059,.54252-.685,.95895-1.21145,1.2493-.52734,.29035-1.15978,.43597-1.89912,.43597Zm-1.14731-1.13653h1.08318c.50685,0,.92996-.09234,1.26846-.27792s.59325-.4626,.76428-.83198c.17014-.36937,.25565-.83198,.25565-1.38692,0-.55406-.08551-1.01577-.25565-1.38248-.17103-.36671-.42222-.64196-.75537-.82487-.33226-.18291-.74557-.27437-1.23817-.27437h-1.12237v4.97854Z"/>
        <path class="uuid-62717c55-3c69-4cf2-8d42-12430e847b2c" d="M152.86557,347.54693c-.54782,0-1.01904-.11454-1.41632-.34185-.39639-.22819-.70104-.5514-.91482-.97049-.21289-.4191-.3189-.91278-.3189-1.48193,0-.55939,.10689-1.05129,.32068-1.47483,.21468-.42354,.51486-.75384,.90057-.9918,.38659-.23707,.84-.35517,1.3611-.35517,.33582,0,.65382,.05327,.95401,.16071,.2993,.10744,.56475,.27348,.79546,.49723,.23071,.22464,.41243,.50966,.54515,.85595,.13272,.3454,.19864,.7565,.19864,1.23331v.39335h-4.47166v-.86394h3.23973c-.00267-.24595-.05612-.46438-.16034-.65706-.10422-.19179-.24942-.34362-.4347-.45461-.18617-.11099-.40263-.16693-.64848-.16693-.26278,0-.49438,.06304-.69302,.19001-.19864,.12608-.35364,.29124-.4632,.49546-.11046,.20422-.16657,.42798-.16925,.67126v.75384c0,.3161,.0579,.5878,.17459,.81244,.1158,.22553,.27792,.39779,.48636,.51765,.20844,.11898,.45251,.17847,.73221,.17847,.18706,0,.35631-.02664,.50774-.07991s.28326-.13141,.39461-.2353c.11046-.10389,.19508-.23263,.25209-.38624l1.20076,.13496c-.07661,.3161-.22002,.59224-.43202,.82665-.212,.2353-.4828,.41643-.81149,.54518-.32958,.12875-.70638,.19357-1.1295,.19357Z"/>
        <path class="uuid-62717c55-3c69-4cf2-8d42-12430e847b2c" d="M157.66414,340.18878v7.2516h-1.28538v-7.2516h1.28538Z"/>
        <path class="uuid-62717c55-3c69-4cf2-8d42-12430e847b2c" d="M161.4027,347.54693c-.54782,0-1.01904-.11454-1.41632-.34185-.39639-.22819-.70104-.5514-.91482-.97049-.21289-.4191-.3189-.91278-.3189-1.48193,0-.55939,.10689-1.05129,.32068-1.47483,.21468-.42354,.51486-.75384,.90057-.9918,.38659-.23707,.84-.35517,1.3611-.35517,.33582,0,.65382,.05327,.95401,.16071,.2993,.10744,.56475,.27348,.79546,.49723,.23071,.22464,.41243,.50966,.54515,.85595,.13272,.3454,.19864,.7565,.19864,1.23331v.39335h-4.47166v-.86394h3.23973c-.00267-.24595-.05612-.46438-.16034-.65706-.10422-.19179-.24942-.34362-.4347-.45461-.18617-.11099-.40263-.16693-.64848-.16693-.26278,0-.49438,.06304-.69302,.19001-.19864,.12608-.35364,.29124-.4632,.49546-.11046,.20422-.16657,.42798-.16925,.67126v.75384c0,.3161,.0579,.5878,.17459,.81244,.1158,.22553,.27792,.39779,.48636,.51765,.20844,.11898,.45251,.17847,.73221,.17847,.18706,0,.35631-.02664,.50774-.07991s.28326-.13141,.39461-.2353c.11046-.10389,.19508-.23263,.25209-.38624l1.20076,.13496c-.07661,.3161-.22002,.59224-.43202,.82665-.212,.2353-.4828,.41643-.81149,.54518-.32958,.12875-.70638,.19357-1.1295,.19357Z"/>
        <path class="uuid-62717c55-3c69-4cf2-8d42-12430e847b2c" d="M167.64076,342.00101v.9918h-3.13729v-.9918h3.13729Zm-2.36232-1.30257h1.28538v5.1064c0,.17226,.02672,.30367,.08017,.39423,.05345,.09146,.12382,.15272,.21111,.18646,.08819,.03285,.18528,.04884,.29128,.04884,.08106,0,.15499-.00533,.2218-.01776,.0677-.01154,.11936-.0222,.15499-.03108l.21646,1.00157c-.06859,.02397-.16657,.04972-.29306,.07814s-.28148,.0444-.4632,.04972c-.32246,.00888-.61285-.03996-.87028-.14739-.25832-.10744-.46231-.27437-.61285-.50078s-.22447-.50966-.2218-.84973v-5.31861Z"/>
        <path class="uuid-62717c55-3c69-4cf2-8d42-12430e847b2c" d="M171.07557,347.54693c-.54782,0-1.01904-.11454-1.41632-.34185-.39639-.22819-.70104-.5514-.91482-.97049-.21289-.4191-.3189-.91278-.3189-1.48193,0-.55939,.10689-1.05129,.32068-1.47483,.21468-.42354,.51486-.75384,.90057-.9918,.38659-.23707,.84-.35517,1.3611-.35517,.33582,0,.65382,.05327,.95401,.16071,.2993,.10744,.56475,.27348,.79546,.49723,.23071,.22464,.41243,.50966,.54515,.85595,.13272,.3454,.19864,.7565,.19864,1.23331v.39335h-4.47166v-.86394h3.23973c-.00267-.24595-.05612-.46438-.16034-.65706-.10422-.19179-.24942-.34362-.4347-.45461-.18617-.11099-.40263-.16693-.64848-.16693-.26278,0-.49438,.06304-.69302,.19001-.19864,.12608-.35364,.29124-.4632,.49546-.11046,.20422-.16657,.42798-.16925,.67126v.75384c0,.3161,.0579,.5878,.17459,.81244,.1158,.22553,.27792,.39779,.48636,.51765,.20844,.11898,.45251,.17847,.73221,.17847,.18706,0,.35631-.02664,.50774-.07991s.28326-.13141,.39461-.2353c.11046-.10389,.19508-.23263,.25209-.38624l1.20076,.13496c-.07661,.3161-.22002,.59224-.43202,.82665-.212,.2353-.4828,.41643-.81149,.54518-.32958,.12875-.70638,.19357-1.1295,.19357Z"/>
      </g>
      <g>
        <path class="uuid-62717c55-3c69-4cf2-8d42-12430e847b2c" d="M32.96177,362.17799v-1.10101h5.80425v1.10101h-2.2483v6.15059h-1.30765v-6.15059h-2.2483Z"/>
        <path class="uuid-62717c55-3c69-4cf2-8d42-12430e847b2c" d="M40.32576,368.32858l-1.54192-5.43937h1.31121l.95936,3.82425h.04899l.98074-3.82425h1.29696l.97985,3.80383h.05345l.94511-3.80383h1.31478l-1.54548,5.43937h-1.33972l-1.0226-3.67597h-.07482l-1.02349,3.67597h-1.34239Z"/>
        <path class="uuid-62717c55-3c69-4cf2-8d42-12430e847b2c" d="M49.84274,368.43513c-.54782,0-1.01904-.11454-1.41632-.34185-.39639-.22819-.70104-.5514-.91482-.97049-.21289-.4191-.3189-.91278-.3189-1.48193,0-.55939,.10689-1.05129,.32068-1.47483,.21468-.42354,.51486-.75384,.90057-.9918,.38659-.23707,.84-.35517,1.3611-.35517,.33582,0,.65382,.05327,.95401,.16071,.2993,.10744,.56475,.27348,.79546,.49723,.23071,.22464,.41243,.50966,.54515,.85595,.13272,.3454,.19864,.7565,.19864,1.23331v.39335h-4.47166v-.86394h3.23973c-.00267-.24595-.05612-.46438-.16034-.65706-.10422-.19179-.24942-.34362-.4347-.45461-.18617-.11099-.40263-.16693-.64848-.16693-.26278,0-.49438,.06304-.69302,.19001-.19864,.12608-.35364,.29124-.4632,.49546-.11046,.20422-.16657,.42798-.16925,.67126v.75384c0,.3161,.0579,.5878,.17459,.81244,.1158,.22553,.27792,.39779,.48636,.51765,.20844,.11898,.45251,.17847,.73221,.17847,.18706,0,.35631-.02664,.50774-.07991s.28326-.13141,.39461-.2353c.11046-.10389,.19508-.23263,.25209-.38624l1.20076,.13496c-.07661,.3161-.22002,.59224-.43202,.82665-.212,.2353-.4828,.41643-.81149,.54518-.32958,.12875-.70638,.19357-1.1295,.19357Z"/>
        <path class="uuid-62717c55-3c69-4cf2-8d42-12430e847b2c" d="M54.64132,365.14185v3.18673h-1.28538v-5.43937h1.22926v.92432h.06324c.1256-.30455,.32691-.54607,.60216-.72543,.27614-.17936,.61819-.26904,1.02528-.26904,.3768,0,.70549,.07991,.98608,.24062s.49794,.39335,.65293,.69701c.15499,.30455,.2316,.67482,.22982,1.10901v3.46287h-1.28627v-3.26486c0-.36316-.09442-.64818-.28237-.85329s-.44806-.30811-.77942-.30811c-.22536,0-.4249,.04884-.5986,.14651-.17459,.09856-.31088,.23974-.40886,.42354s-.14787,.40755-.14787,.66949Z"/>
        <path class="uuid-62717c55-3c69-4cf2-8d42-12430e847b2c" d="M61.82804,370.46046c-.46231,0-.8587-.06127-1.19007-.18469-.33137-.12253-.5986-.2868-.79991-.4919s-.34027-.43064-.41866-.67659l1.158-.27969c.05166,.09678,.12827,.19712,.22715,.29923,.09977,.103,.23427,.18913,.40352,.25838,.16925,.07015,.38303,.10477,.64135,.10477,.36432,0,.6663-.08702,.90591-.26193,.23873-.17492,.35809-.45639,.35809-.84618v-1.03087h-.06324c-.06681,.1323-.16301,.26815-.2895,.40755-.12738,.1394-.29395,.25572-.5015,.35073-.20666,.09412-.46676,.14118-.77942,.14118-.41955,0-.79902-.09856-1.1384-.29568-.34027-.19712-.61018-.4919-.80971-.88525-.20042-.39246-.30019-.88525-.30019-1.47838,0-.59668,.09977-1.1019,.30019-1.5139,.19953-.41199,.47033-.72454,.81149-.93764,.34116-.21399,.72063-.32054,1.14018-.32054,.31979,0,.58345,.05327,.79011,.16071,.20755,.10744,.37234,.23619,.49616,.38624,.12293,.15006,.21646,.29124,.28059,.42265h.07037v-.89946h1.26846v5.52816c0,.4555-.11135,.83464-.33404,1.13831-.22269,.30278-.52644,.53009-.91304,.68014-.3857,.14917-.82396,.22464-1.31388,.22464Zm.01069-3.21514c.27168,0,.50418-.06659,.69569-.19889,.19241-.1323,.3376-.32231,.43737-.57004s.14876-.54518,.14876-.89235c0-.34185-.04899-.64196-.14698-.89946-.09798-.25661-.24318-.45728-.4338-.60023-.19062-.14207-.42401-.21399-.70104-.21399-.28683,0-.52644,.07458-.71796,.22287-.19152,.14917-.33582,.3525-.43291,.61089s-.14609,.55228-.14609,.87992c0,.33297,.04899,.6242,.14787,.87282,.09798,.2495,.24318,.44307,.43648,.5807,.1933,.13851,.43024,.20777,.71262,.20777Z"/>
        <path class="uuid-62717c55-3c69-4cf2-8d42-12430e847b2c" d="M67.28044,368.43868c-.34562,0-.6565-.06215-.93174-.18646-.27614-.12342-.49438-.30722-.65382-.55051-.16034-.24329-.23962-.54252-.23962-.89946,0-.30633,.05612-.56027,.17014-.76094s.26901-.36138,.46498-.48214c.19686-.11987,.41866-.21132,.6663-.27437,.24763-.06215,.50418-.10744,.76962-.13585,.31979-.03285,.579-.06304,.77764-.09057,.19864-.02664,.34384-.06926,.43559-.12697,.09086-.0586,.13629-.14828,.13629-.2717v-.02131c0-.26637-.07928-.47326-.23784-.61888-.15856-.14651-.38748-.2202-.68589-.2202-.31444,0-.56386,.06837-.74736,.206-.1835,.13674-.30732,.29834-.37145,.4848l-1.20076-.16959c.09442-.33119,.2512-.60733,.46854-.83109,.21824-.22287,.48458-.39068,.79991-.50256,.31444-.11188,.66273-.16782,1.04398-.16782,.26278,0,.52466,.03019,.78566,.09146,.2601,.06215,.49794,.16249,.71351,.30278,.21557,.14118,.38927,.33119,.52021,.57182,.13183,.24151,.19775,.54252,.19775,.90301v3.64045h-1.23639v-.74674h-.04276c-.07839,.15095-.18795,.29212-.32869,.42265-.14074,.13141-.31711,.23619-.52912,.31521s-.45964,.11898-.74468,.11898Zm.33404-.94208c.25832,0,.48191-.0515,.67164-.1545,.18973-.10211,.33582-.23885,.43915-.40844,.10244-.17048,.1541-.35517,.1541-.55583v-.64107c-.04008,.03285-.10867,.06393-.20399,.09146-.0962,.02841-.2031,.05327-.32157,.07458s-.23605,.03996-.35185,.05683-.21646,.03108-.30197,.04262c-.19152,.02575-.36343,.06837-.51486,.12697-.15143,.05949-.27168,.14118-.35898,.24684-.0873,.10477-.13183,.23974-.13183,.40489,0,.23619,.0864,.41466,.2601,.53452,.17281,.12076,.39283,.18113,.66006,.18113Z"/>
        <path class="uuid-62717c55-3c69-4cf2-8d42-12430e847b2c" d="M71.51605,368.32858v-7.2516h2.78455c.52555,0,.96381,.08169,1.31299,.24595s.61107,.38713,.78477,.67038c.17459,.28324,.261,.60467,.261,.96339,0,.29568-.05701,.54696-.17014,.7565-.11402,.20866-.26634,.37825-.45875,.50789-.19152,.12964-.40619,.22287-.64224,.27969v.07103c.25743,.01421,.50596,.09234,.74379,.2353s.43291,.34362,.58434,.60378c.15143,.25927,.22715,.57359,.22715,.94208,0,.3747-.09086,.71211-.27347,1.01045-.18261,.29923-.45696,.53452-.82396,.70678s-.82931,.25838-1.38515,.25838h-2.94488Zm1.31745-4.16787h1.30409c.22715,0,.43202-.04173,.61463-.1252,.18172-.08435,.32602-.20333,.43113-.35783s.15856-.3383,.15856-.55051c0-.28147-.09888-.51233-.29663-.69435s-.49081-.27259-.87919-.27259h-1.33259v2.00047Zm0,3.07041h1.41721c.47834,0,.82396-.09146,1.03596-.27437s.318-.4191,.318-.70678c0-.21488-.05345-.40933-.16034-.58247-.106-.17314-.25832-.31077-.45429-.4111-.19686-.10033-.43113-.15006-.70371-.15006h-1.45284v2.12478Z"/>
        <path class="uuid-62717c55-3c69-4cf2-8d42-12430e847b2c" d="M80.41395,368.43513c-.53268,0-.99499-.1172-1.38604-.35073-.39016-.23352-.69302-.56116-.90769-.98115-.21378-.41998-.32068-.911-.32068-1.47305s.10689-1.05396,.32068-1.4766c.21468-.42265,.51754-.75029,.90769-.9847,.39105-.23352,.85336-.34984,1.38604-.34984s.9941,.11632,1.38515,.34984c.39105,.23441,.69302,.56205,.90769,.9847s.32157,.91455,.32157,1.4766-.10689,1.05307-.32157,1.47305-.51665,.74762-.90769,.98115-.85247,.35073-1.38515,.35073Zm.00713-1.02732c.28861,0,.53001-.07991,.7242-.23885,.19419-.15982,.33938-.37381,.43559-.64285,.09531-.26904,.14341-.56915,.14341-.89946,0-.33297-.0481-.63397-.14341-.90479-.0962-.26993-.2414-.48569-.43559-.6464-.19419-.15982-.43559-.24062-.7242-.24062-.29663,0-.54159,.0808-.73756,.24062-.19508,.16071-.34116,.37648-.43648,.6464-.0962,.27081-.1443,.57182-.1443,.90479,0,.3303,.0481,.63042,.1443,.89946,.09531,.26904,.2414,.48303,.43648,.64285,.19597,.15894,.44093,.23885,.73756,.23885Z"/>
        <path class="uuid-62717c55-3c69-4cf2-8d42-12430e847b2c" d="M86.84085,362.88921v.9918h-3.13729v-.9918h3.13729Zm-2.36232-1.30257h1.28538v5.1064c0,.17226,.02672,.30367,.08017,.39423,.05345,.09146,.12382,.15272,.21111,.18646,.08819,.03285,.18528,.04884,.29128,.04884,.08106,0,.15499-.00533,.2218-.01776,.0677-.01154,.11936-.0222,.15499-.03108l.21646,1.00157c-.06859,.02397-.16657,.04972-.29306,.07814s-.28148,.0444-.4632,.04972c-.32246,.00888-.61285-.03996-.87028-.14739-.25832-.10744-.46231-.27437-.61285-.50078s-.22447-.50966-.2218-.84973v-5.31861Z"/>
      </g>
      <g>
        <path class="uuid-62717c55-3c69-4cf2-8d42-12430e847b2c" d="M145.72516,368.32858h-2.46476v-7.2516h2.51464c.72241,0,1.34328,.14384,1.86349,.4333,.51932,.28946,.91927,.70412,1.19898,1.24486,.27881,.54074,.41866,1.18714,.41866,1.94009,0,.75562-.13985,1.40468-.42044,1.94809-.28059,.54252-.685,.95895-1.21145,1.2493-.52734,.29035-1.15978,.43597-1.89912,.43597Zm-1.14731-1.13653h1.08318c.50685,0,.92996-.09234,1.26846-.27792s.59325-.4626,.76428-.83198c.17014-.36937,.25565-.83198,.25565-1.38692,0-.55406-.08551-1.01577-.25565-1.38248-.17103-.36671-.42222-.64196-.75537-.82487-.33226-.18291-.74557-.27437-1.23817-.27437h-1.12237v4.97854Z"/>
        <path class="uuid-62717c55-3c69-4cf2-8d42-12430e847b2c" d="M152.86557,368.43513c-.54782,0-1.01904-.11454-1.41632-.34185-.39639-.22819-.70104-.5514-.91482-.97049-.21289-.4191-.3189-.91278-.3189-1.48193,0-.55939,.10689-1.05129,.32068-1.47483,.21468-.42354,.51486-.75384,.90057-.9918,.38659-.23707,.84-.35517,1.3611-.35517,.33582,0,.65382,.05327,.95401,.16071,.2993,.10744,.56475,.27348,.79546,.49723,.23071,.22464,.41243,.50966,.54515,.85595,.13272,.3454,.19864,.7565,.19864,1.23331v.39335h-4.47166v-.86394h3.23973c-.00267-.24595-.05612-.46438-.16034-.65706-.10422-.19179-.24942-.34362-.4347-.45461-.18617-.11099-.40263-.16693-.64848-.16693-.26278,0-.49438,.06304-.69302,.19001-.19864,.12608-.35364,.29124-.4632,.49546-.11046,.20422-.16657,.42798-.16925,.67126v.75384c0,.3161,.0579,.5878,.17459,.81244,.1158,.22553,.27792,.39779,.48636,.51765,.20844,.11898,.45251,.17847,.73221,.17847,.18706,0,.35631-.02664,.50774-.07991s.28326-.13141,.39461-.2353c.11046-.10389,.19508-.23263,.25209-.38624l1.20076,.13496c-.07661,.3161-.22002,.59224-.43202,.82665-.212,.2353-.4828,.41643-.81149,.54518-.32958,.12875-.70638,.19357-1.1295,.19357Z"/>
        <path class="uuid-62717c55-3c69-4cf2-8d42-12430e847b2c" d="M157.66414,361.07698v7.2516h-1.28538v-7.2516h1.28538Z"/>
        <path class="uuid-62717c55-3c69-4cf2-8d42-12430e847b2c" d="M161.4027,368.43513c-.54782,0-1.01904-.11454-1.41632-.34185-.39639-.22819-.70104-.5514-.91482-.97049-.21289-.4191-.3189-.91278-.3189-1.48193,0-.55939,.10689-1.05129,.32068-1.47483,.21468-.42354,.51486-.75384,.90057-.9918,.38659-.23707,.84-.35517,1.3611-.35517,.33582,0,.65382,.05327,.95401,.16071,.2993,.10744,.56475,.27348,.79546,.49723,.23071,.22464,.41243,.50966,.54515,.85595,.13272,.3454,.19864,.7565,.19864,1.23331v.39335h-4.47166v-.86394h3.23973c-.00267-.24595-.05612-.46438-.16034-.65706-.10422-.19179-.24942-.34362-.4347-.45461-.18617-.11099-.40263-.16693-.64848-.16693-.26278,0-.49438,.06304-.69302,.19001-.19864,.12608-.35364,.29124-.4632,.49546-.11046,.20422-.16657,.42798-.16925,.67126v.75384c0,.3161,.0579,.5878,.17459,.81244,.1158,.22553,.27792,.39779,.48636,.51765,.20844,.11898,.45251,.17847,.73221,.17847,.18706,0,.35631-.02664,.50774-.07991s.28326-.13141,.39461-.2353c.11046-.10389,.19508-.23263,.25209-.38624l1.20076,.13496c-.07661,.3161-.22002,.59224-.43202,.82665-.212,.2353-.4828,.41643-.81149,.54518-.32958,.12875-.70638,.19357-1.1295,.19357Z"/>
        <path class="uuid-62717c55-3c69-4cf2-8d42-12430e847b2c" d="M167.64076,362.88921v.9918h-3.13729v-.9918h3.13729Zm-2.36232-1.30257h1.28538v5.1064c0,.17226,.02672,.30367,.08017,.39423,.05345,.09146,.12382,.15272,.21111,.18646,.08819,.03285,.18528,.04884,.29128,.04884,.08106,0,.15499-.00533,.2218-.01776,.0677-.01154,.11936-.0222,.15499-.03108l.21646,1.00157c-.06859,.02397-.16657,.04972-.29306,.07814s-.28148,.0444-.4632,.04972c-.32246,.00888-.61285-.03996-.87028-.14739-.25832-.10744-.46231-.27437-.61285-.50078s-.22447-.50966-.2218-.84973v-5.31861Z"/>
        <path class="uuid-62717c55-3c69-4cf2-8d42-12430e847b2c" d="M171.07557,368.43513c-.54782,0-1.01904-.11454-1.41632-.34185-.39639-.22819-.70104-.5514-.91482-.97049-.21289-.4191-.3189-.91278-.3189-1.48193,0-.55939,.10689-1.05129,.32068-1.47483,.21468-.42354,.51486-.75384,.90057-.9918,.38659-.23707,.84-.35517,1.3611-.35517,.33582,0,.65382,.05327,.95401,.16071,.2993,.10744,.56475,.27348,.79546,.49723,.23071,.22464,.41243,.50966,.54515,.85595,.13272,.3454,.19864,.7565,.19864,1.23331v.39335h-4.47166v-.86394h3.23973c-.00267-.24595-.05612-.46438-.16034-.65706-.10422-.19179-.24942-.34362-.4347-.45461-.18617-.11099-.40263-.16693-.64848-.16693-.26278,0-.49438,.06304-.69302,.19001-.19864,.12608-.35364,.29124-.4632,.49546-.11046,.20422-.16657,.42798-.16925,.67126v.75384c0,.3161,.0579,.5878,.17459,.81244,.1158,.22553,.27792,.39779,.48636,.51765,.20844,.11898,.45251,.17847,.73221,.17847,.18706,0,.35631-.02664,.50774-.07991s.28326-.13141,.39461-.2353c.11046-.10389,.19508-.23263,.25209-.38624l1.20076,.13496c-.07661,.3161-.22002,.59224-.43202,.82665-.212,.2353-.4828,.41643-.81149,.54518-.32958,.12875-.70638,.19357-1.1295,.19357Z"/>
      </g>
    </g>
    <g>
      <rect class="uuid-69246f7f-01a2-46ac-8ec6-cf7dbfe78d95" x="252.92991" y="389.158" width="73.39009" height="64.45777" rx="4.06705" ry="4.06705"/>
      <g>
        <path id="uuid-7c0d6111-0b4f-45d1-b00b-34feaa748003" data-name="Icon awesome-database" class="uuid-ebba2103-ca68-467e-8803-285ceaf6740a" d="M303.15849,408.00889v3.23626c0,2.85262-7.12669,5.17861-15.91005,5.17861s-15.91005-2.326-15.91005-5.17861v-3.23626c0-2.85262,7.12669-5.17861,15.91005-5.17861s15.91005,2.326,15.91005,5.17861Zm0,7.28208v7.28208c0,2.85262-7.12669,5.17861-15.91005,5.17861s-15.91005-2.326-15.91005-5.17861v-7.28208c3.41839,2.34613,9.67432,3.43865,15.91005,3.43865s12.49166-1.09251,15.91005-3.43865Zm0,11.3279v7.28208c0,2.85262-7.12669,5.17861-15.91005,5.17861s-15.91005-2.326-15.91005-5.17861v-7.28208c3.41839,2.34613,9.67432,3.43865,15.91005,3.43865s12.49166-1.09251,15.91005-3.43865Z"/>
        <ellipse class="uuid-af1aa831-6f7f-4f1b-8dbf-fa1e4f79e1fc" cx="303.15849" cy="435.51027" rx="9.57176" ry="9.54109"/>
        <g>
          <path class="uuid-52f0fa84-7961-4bfe-a009-aa073bab5316" d="M311.1063,434.76771c-.44182,0-.80169,.35872-.80169,.79912,0,3.73812-3.04999,6.77923-6.79924,6.77923-2.18495,0-4.19658-1.06039-5.46292-2.77135l2.76745,.89607,.43291-1.3301-5.20209-1.68171-.22347,.90606-.00367,.00583c-.00379,.00988-.00189,.02048-.00529,.03047l-1.07343,4.35228,1.36199,.33386,.63868-2.59271c1.56313,2.12889,4.05851,3.44955,6.76985,3.44955,4.63289,0,8.40263-3.75766,8.40263-8.37748,0-.44041-.35987-.79912-.80169-.79912Z"/>
          <path class="uuid-52f0fa84-7961-4bfe-a009-aa073bab5316" d="M295.90354,436.34642h.00089c.44093,0,.8008-.35783,.80169-.79735,.0098-3.72658,3.05979-6.75881,6.79924-6.75881,2.15188,0,4.14514,1.03542,5.41488,2.70664l-2.77553-.86333-.41688,1.33454,5.2208,1.62311,.21301-.90867,.00256-.00411c.00262-.00694,.00106-.01443,.00345-.02142l1.02539-4.37376-1.36555-.32054-.60934,2.60326c-1.56809-2.08277-4.04142-3.37397-6.71278-3.37397-4.62131,0-8.39105,3.747-8.40263,8.3535-.00089,.21399,.08195,.41466,.23338,.5656s.35274,.23441,.56742,.2353Z"/>
        </g>
      </g>
    </g>
  </g>
  <path id="uuid-6fa85513-6444-4599-b4a4-74f3b0b19cd9" data-name="Path 3102" class="uuid-6ca73460-a484-492a-8aa8-b7393a9256bd" d="M114.20003,132.37888c5.94248,0,10.75982,4.80191,10.75981,10.72534,0,5.92343-4.81733,10.72534-10.75982,10.72533-5.94248,0-10.75981-4.80189-10.75981-10.72533s4.81733-10.72534,10.75981-10.72534h.00002"/>
  <path id="uuid-437482a1-5fd6-4879-aacf-6864568ce551" data-name="Path 3103" class="uuid-af1aa831-6f7f-4f1b-8dbf-fa1e4f79e1fc" d="M113.05767,147.00136c-.23883-.00008-.46787-.09461-.63685-.26285l-2.56034-2.55314c-.35146-.35059-.35123-.91881,.0005-1.26912,.35172-.35033,.92174-.3501,1.2732,.00048h0l1.92349,1.91634,4.99431-4.98029c.35172-.35033,.92176-.3501,1.2732,.0005,.35146,.35059,.35123,.91879-.00049,1.26912h0l-5.63018,5.61412c-.16892,.16833-.398,.26288-.63685,.26285"/>
</svg>